<?xml version="1.0"?>
<svg xmlns:rdf="http://www.w3.org/1999/02/22-rdf-syntax-ns#" xmlns="http://www.w3.org/2000/svg" xmlns:cc="http://web.resource.org/cc/" xmlns:dc="http://purl.org/dc/elements/1.1/" xmlns:svg="http://www.w3.org/2000/svg" id="Layer_1" xml:space="preserve" overflow="visible" viewBox="0 0 853.276 300.164" version="1.0" enable-background="new 0 0 853.276 300.164">
<path id="path2212" d="m46.893 472.32c-2.314-0.96-6.627-4.92-9.584-8.79-4.885-6.41-5.286-8.18-4.388-19.36 0.915-11.4 9.472-33.14 22.379-56.84 1.638-3.01 4.012-7.44 5.275-9.84 1.264-2.4 4.284-7.14 6.711-10.52 2.428-3.39 4.415-7.03 4.415-8.09 12.111-17.49 0.554 0.52 11.691-17.58 6.661-2.38 6.908-5.85 10.771-11.32l4.787-6.28-4.306-2.06c-2.368-1.13-5.85-2.55-7.739-3.15-5.817-1.86-3.822-5.9 5.524-11.18l8.941-5.06-8.459-5.53c-10.965-7.16-23.172-19.5-23.172-23.42 0-1.68 3.752-5.42 8.338-8.3 30.653-19.23 58.363-38.64 58.363-40.89 26.27-14.2 2.34 0.96 27.47-15.5 11.33-7.43 25.16-16.48 30.74-20.11s11.76-6.57 13.73-6.54c4.77 0.08 4.6 0.21-31.09 23.32-17.51 11.34-20.77 14.23-19.89 17.59 1.52 5.83 16.96 17.79 29.59 22.92l10.88 4.42 23.35-16.01c12.85-8.8 25.74-17.25 28.64-18.76 2.9-1.52 5.72-3.32 6.26-4s5.13-3.95 10.21-7.26l9.22-6.02-8.2-2.46c-4.51-1.35-11.91-5.01-16.45-8.13-4.53-3.12-9.08-5.67-10.1-5.67s-3.11-2.61-4.66-5.8l-2.81-5.8-6.26 3.81c-3.45 2.09-6.27 4.7-6.27 5.8 0 1.09-1.76 1.99-3.92 1.99-6.51 0-4.48-3.45 6.35-10.74 7.54-5.08 10.54-6.22 11.28-4.29 2.22 5.81 11.79 15.03 15.59 15.03 2.23 0 4.06-0.74 4.06-1.63 0-0.9 9.34-7.7 20.77-15.12l20.78-13.47-1.18-9.91c-0.65-5.44-1.28-23.27-1.4-39.62-0.17-24.282 0.44-31.469 3.35-39.24 6.48-17.323 28.43-37.961 40.37-37.961 3.07 0 5.59-0.776 5.59-1.724s2.47-2.747 5.49-3.997c4.29-1.778 6.86-1.695 11.8 0.383 8.34 3.509 6.01 5.338-6.83 5.338-5.75 0-10.46 0.67-10.46 1.49 0 0.819 12.14 7.661 26.98 15.204 14.83 7.543 27.46 14.373 28.06 15.177 2.37 3.168 11.14 2.026 19.19-2.497l8.46-4.756-5.54-2.419c-3.05-1.331-10.64-4.663-16.88-7.405s-12.21-4.985-13.26-4.985c-1.06 0-5.67-1.686-10.25-3.746-4.57-2.06-9.64-4.197-11.26-4.75-1.61-0.552-0.08-1.073 3.41-1.159 6.01-0.147 54.34 17.741 58.3 21.578 1.02 0.996 3.46 1.81 5.41 1.81 1.96 0 7.64 1.919 12.63 4.265 8.81 4.143 9.15 4.16 11.75 0.606 1.47-2.012 2.69-5.035 2.7-6.717 0.08-10.694 32.79-48.676 53.77-62.446 5.31-3.484 10.17-6.403 10.79-6.486 4.04-0.533 8.42-1.613 8.76-2.155 0.21-0.35 2.6-4.169 5.29-8.485 2.7-4.316 7.86-14.027 11.47-21.581 3.6-7.553 7.48-15.498 8.6-17.656 11.47-21.961 31.01-59.986 37.3-72.586 4.31-8.64 9.46-18.04 11.45-20.91 1.98-2.86 3.61-6.44 3.61-7.95 0-4.66 11.98-14.49 29.18-23.92 18.16-9.98 23.79-11.18 23.79-5.07 0 3.93-6.47 29.77-14 55.88-2.18 7.56-4.72 17.71-5.64 22.57-0.93 4.85-3.95 15.38-6.72 23.39-2.77 8.013-5.04 16.4-5.06 18.639-0.01 2.239-2.11 10.692-4.65 18.785-2.55 8.093-5.19 17.845-5.88 21.672-1.17 6.549-0.85 7.099 5.42 9.365 8.64 3.124 24.45 17.08 25.9 22.862 0.76 3.0387 2.23 4.2226 4.48 3.6321 7.68-2.0084 19.88 13.816 19.88 25.786 0 4.212-0.89 4.968-5.88 4.968-8.25 0-7.33 2.682 2.43 7.059 4.58 2.052 9.88 5.276 11.77 7.164 1.9 1.888 4.78 3.433 6.4 3.433 3.44 0 4.02 7.948 0.81 11.154-1.53 1.53-1.19 3.936 1.2 8.558 2.01 3.886 3.58 12.321 3.97 21.316 0.35 8.187 0.18 13.782-0.38 12.434-0.57-1.349-2.2-2.453-3.64-2.453s-3.07-1.103-3.63-2.452c-0.61-1.486-1.54-0.712-2.35 1.962-2.14 7.036-4.21 5.16-5.56-5.05-0.69-5.205-2.54-11.165-4.12-13.243-3.44-4.549-4.02-0.556-0.79 5.473 1.2 2.249 2.2 8.15 2.23 13.114 0.03 8.832 0.24 9.132 9.58 13.762 11.24 5.58 11.75 8.3 3.66 19.47-3.24 4.47-5.89 8.75-5.89 9.51s-2.06 3.64-4.59 6.39c-2.53 2.76-6.53 8.27-8.91 12.24l-4.31 7.22 13.81 8.21c7.6 4.51 13.81 8.98 13.81 9.94 0 2.81-7.16 1.99-9.73-1.12-1.31-1.56-6.49-5.24-11.52-8.16-5.04-2.93-9.6-5.86-10.14-6.52-0.54-0.67-3.19-2.17-5.88-3.35-3.97-1.74-7.52-1.22-18.64 2.74-7.55 2.68-14.06 5.17-14.46 5.54-0.4 0.36 3.35 2.64 8.34 5.06 4.98 2.42 9.06 5.11 9.06 5.98 0 3.07-7.3 1.5-10.75-2.32-4.33-4.77-15.14-7.04-19.99-4.18-3.37 1.99-3.32 2.2 0.82 3.36 2.43 0.68 4.42 2.02 4.42 2.98 0 0.95 2.21 1.73 4.91 1.73 5.08 0 61.85 26.46 63.97 29.82 0.66 1.04 1.78 0.37 2.5-1.49 0.71-1.86 1.06-3.57 0.76-3.79-0.29-0.23-10.57-5.62-22.83-11.99-12.26-6.36-20.88-11.85-19.14-12.2 1.73-0.35 13.08 4.65 25.23 11.12l22.09 11.74 7.01-3.62c12.13-6.29 12.65-8.48 3.25-13.85-7.42-4.24-7.81-4.81-3.72-5.4 2.52-0.36 6.12 0.74 8 2.44 1.88 1.71 4.39 3.1 5.56 3.1s2.43 0.67 2.79 1.48 3.3 2.9 6.54 4.64c6.38 3.44 43.2 25.87 48.16 29.33 1.67 1.17 7.19 4.71 12.26 7.87 5.08 3.16 9.23 6.4 9.22 7.21 0 2.71-32.28 27.52-40.21 30.91-4.32 1.85-10.5 4.49-13.74 5.88-11.72 5.01-30.82 10.43-41.68 11.83-2.43 0.31-7.72 1.06-11.77 1.66-7.97 1.18-22.46 2.48-45.62 4.08-8.09 0.56-21.34 1.47-29.43 2.04-8.09 0.56-25.31 1.88-38.26 2.93-12.94 1.05-30.6 2.39-39.23 2.96-13.41 0.89-34.74 3.42-49.05 5.81-25.98 4.36-61.54 17.65-71.01 26.55-3.45 3.24-7.59 5.89-9.2 5.89s-12.47 6.45-24.14 14.34-37.69 25.51-57.84 39.16l-36.62 24.82-11.74-5.87c-6.46-3.22-12.77-7.11-14.04-8.64-1.97-2.37-3.35-2.25-9.51 0.88-3.97 2.02-15.16 7.38-24.87 11.93s-27.68 13.01-39.93 18.8-22.63 10.52-23.06 10.52-5.42 2.29-11.08 5.08c-15.41 7.61-40.09 16.57-54.21 19.68-15.571 3.43-48.811 5.12-54.457 2.77zm14.998-10.78c0-7.72-1.042-9.82-8.816-17.82-4.849-4.99-9.877-8.72-11.174-8.29-3.851 1.29-5.526 11.5-3.322 20.25 2.162 8.59 9.511 14.22 18.898 14.49 3.937 0.11 4.414-0.82 4.414-8.63zm9.81-17.49c0-0.41-1.545-1.95-3.434-3.43-3.111-2.44-3.181-2.37-0.74 0.74 2.563 3.27 4.174 4.3 4.174 2.69zm51.199-14.4c-1.78-3.07-2.04-2.88-2.09 1.57-0.04 2.79 0.6 5.74 1.41 6.55 2.36 2.38 2.92-4.28 0.68-8.12zm-8.81 1.94c-0.66-0.65-1.12 0.51-1.03 2.57 0.09 2.29 0.55 2.75 1.18 1.19 0.57-1.42 0.5-3.11-0.15-3.76zm15.69-5.89c-0.65-0.65-1.12 0.51-1.03 2.58 0.09 2.28 0.56 2.75 1.19 1.18 0.56-1.41 0.49-3.11-0.16-3.76zm32.35-2.66c-1.26-3.14-1.94-3.63-2.02-1.46-0.17 4.35 2.37 10.81 3.23 8.23 0.38-1.12-0.17-4.16-1.21-6.77zm9.01-9.17c-0.49-1.88-0.87 0.12-0.85 4.44 0.02 4.31 0.42 5.85 0.89 3.41s0.45-5.98-0.04-7.85zm-57.26 2.01c1.08-1.78 4.01-5.37 6.5-7.98 2.89-3.01 4.06-5.91 3.21-7.96-1.15-2.75-1.48-2.79-2.36-0.27-1.52 4.39-7.74 9.81-11.25 9.81-3.61 0-6.72-7.1-5.37-12.26 0.51-1.96 3.07-4.69 5.69-6.06 4.74-2.48 4.74-2.5 0.8-6.06-3.84-3.48-4.07-3.41-9.09 2.56l-5.159 6.13-5.023-3.95c-2.762-2.18-8.421-4.5-12.575-5.16-7.945-1.27-9.922-5.28-5.1-10.35 2.005-2.1 1.558-2.31-2.452-1.12-5.91 1.74-4.581 0.3-9.705 10.46-2.366 4.69-3.799 9.03-3.184 9.65 0.614 0.61 1.117 0.09 1.117-1.17 0-3 8.36-2.96 11.379 0.06 1.295 1.3 2.355 1.66 2.355 0.82 0-0.85 3.531 1.26 7.847 4.68 4.316 3.41 7.848 7.2 7.848 8.4 0 1.21 2.862 5.15 6.361 8.76 4.981 5.14 7.421 6.31 11.281 5.4 2.71-0.64 5.8-2.61 6.88-4.39zm13.94 0.01c-0.65-0.65-1.12 0.51-1.03 2.58 0.09 2.28 0.56 2.75 1.18 1.18 0.57-1.41 0.5-3.1-0.15-3.76zm73.82-7.27c0.5-2.63 0.18-5.94-0.72-7.35-1.04-1.65-1.65 0.08-1.67 4.77-0.03 8.41 1.05 9.58 2.39 2.58zm-126.05-1.6c-0.024-3.57-0.394-3.85-1.931-1.47-2.458 3.81-2.458 5.89 0 5.89 1.079 0 1.948-1.99 1.931-4.42zm74.586-8.95c27.38-14.33 42.15-23.1 47.86-28.42 4.16-3.88 6.34-4.75 8.16-3.24 1.54 1.28 2.92 1.35 3.64 0.18 2.06-3.33 8.08-0.19 10.62 5.54 2.69 6.08 1.57 14.03-2.99 21.33-3.15 5.04-1.89 8.29 1.8 4.61 1.27-1.28 3.57-2.33 5.1-2.33 3.4 0 19.8-10.17 19.9-12.34 0.04-0.85-1.86-4.17-4.22-7.36-3.28-4.43-4.58-9.68-5.47-22-0.64-8.89-2.56-18.82-4.27-22.06-1.7-3.23-4.22-9.35-5.59-13.59-3.7-11.45-11.45-21.3-23.45-29.82-12.53-8.89-15.87-10.51-12.02-5.85 2.45 2.96 2.27 3.89-1.47 7.63l-4.25 4.25-4.21-4.21c-3.87-3.87-3.96-4.47-1.07-7.36 1.73-1.73 2.65-4.45 2.04-6.04-1.4-3.66-4.61-3.76-4.61-0.15 0 3.16-4.18 5.11-10.95 5.11-5.56 0-6.19-3.37-1.31-7.07 3.03-2.3 2.46-2.62-4.86-2.67-4.58-0.04-10.85 1.49-14 3.41-7.31 4.44-19.9 19.45-19.86 23.69 0.01 2.19 5.18 5.41 15.96 9.94 9.63 4.05 16.29 8.05 16.83 10.11 0.89 3.41 10.45 6.57 12.3 4.07 0.54-0.74 3.57-2.47 6.73-3.87 5.57-2.45 6.03-2.22 15.4 7.71 7.99 8.47 9.12 10.52 6.58 11.94-4.67 2.62-16.78 15.87-18.05 19.75-1.02 3.14-1.85 3.01-9.65-1.56-4.69-2.75-12.8-5.77-18.01-6.71-16.61-2.99-37.89-11.18-37.99-14.62-0.09-2.94-7-10.95-9.44-10.95-1.1 0-4.04 2.87-6.523 6.37-2.486 3.51-6.961 8.44-9.943 10.97-2.982 2.52-5.458 5.61-5.502 6.86-0.044 1.26-2.692 5.34-5.885 9.07-6.881 8.05-7.865 13.09-1.938 9.92 2.929-1.57 6.792-1.09 15.903 1.98 19.818 6.68 29.308 14.8 37.408 31.99 2.95 6.28 4.82 8.46 5.52 6.48 0.58-1.64 7.68-6.45 15.78-10.69zm-15.35-16.34c-7.87-7.82-12.12-13.63-12.12-16.57 0-5.05 10.86-14.54 16.64-14.54 4.37 0 28.42 23.37 28.46 27.65 0.01 1.72-1.52 4.49-3.41 6.14-3.12 2.74-14.96 9.37-16.72 9.37-0.4 0-6.18-5.42-12.85-12.05zm25.6 0.7c3.19-2.74 3.2-3.24 0.07-8.53-3.32-5.61-6.4-7.38-6.4-3.66 0 1.08-2.01 1.96-4.47 1.96s-6.48 1.41-8.95 3.14c-4.24 2.97-4.3 3.34-1.17 6.81 3.23 3.57 3.43 3.53 7.14-1.18 2.09-2.66 5.07-4.85 6.61-4.85 3.45 0 3.67 6.13 0.35 9.71-1.99 2.15-1.9 2.35 0.49 1.07 1.62-0.86 4.47-2.87 6.33-4.47zm-25.95-11.6c0-2.47 0.57-2.76 2.2-1.13 1.58 1.57 3.5 1.61 6.76 0.12 5.92-2.7 7.13-6.17 3.72-10.67-2.57-3.39-2.75-3.27-2.81 1.77-0.05 4.43-0.94 5.4-4.96 5.4-3.85 0-4.86-0.96-4.68-4.42 0.17-3.36 0.44-3.59 1.13-0.96 0.86 3.32 4.53 2.98 4.53-0.42 0-3.03-6.01-3.97-9.89-1.55-4.31 2.69-5.07 9.26-1.49 12.84 3.31 3.31 5.49 2.92 5.49-0.98zm49.97-3.53c1.25-7.53 7.96-15.52 11.28-13.47 0.84 0.52 1.59-0.65 1.67-2.6 0.12-3.17 0.32-3.13 1.82 0.37 1.53 3.56 1.7 3.59 1.83 0.33 0.07-1.98 1.18-3.25 2.46-2.82 2.52 0.84 9.45-5.16 9.45-8.18 0-1.01 1.76-1.7 3.92-1.54 3 0.22 3.92 1.69 3.89 6.25-0.02 4.57-0.47 5.27-1.93 3.02-1.58-2.44-1.91-2.28-1.96 0.98-0.05 3.25-0.38 3.42-1.96 0.98-1.61-2.49-1.91-2.4-1.93 0.61-0.02 1.95-0.92 3-2 2.33-1.07-0.66-1.96-0.13-1.96 1.2 0 1.32-0.53 1.87-1.18 1.21-0.66-0.65-3.17 0.95-5.6 3.57-2.42 2.61-4.97 4.18-5.67 3.47-0.71-0.7-1.28-0.1-1.28 1.34s-0.57 2.05-1.27 1.35-3.44 1.14-6.08 4.08l-4.81 5.36 1.31-7.84zm-79.37 1.47c-0.01-2.43 0.86-4.42 1.93-4.42 2.46 0 2.46 2.09 0 5.89-1.53 2.38-1.9 2.1-1.93-1.47zm-11.799-4.42c0-2.29 1.308-3.92 3.153-3.92 2.069 0 2.743 1.07 1.962 3.1-0.655 1.71-1.191 3.48-1.191 3.93s-0.883 0.82-1.962 0.82-1.962-1.77-1.962-3.93zm11.799-4.41c0.05-3.6 3.48-8.43 4.95-6.96 1.72 1.72-0.86 9.41-3.15 9.41-1 0-1.81-1.1-1.8-2.45zm117.8-19.13c0-5.6 0.37-6.23 2-3.43 1.36 2.33 1.36 4.53 0 6.86-1.63 2.81-2 2.17-2-3.43zm-19.37-28.94c0.44-3.86 1.87-5.57 5.03-6.02 5.48-0.78 5.62 1.54 0.42 7.12-5.23 5.62-6.2 5.42-5.45-1.1zm-15.87 1.22l-4.71-1.8 4.67-4.97 4.67-4.98 1.47 5.47c1.81 6.77 0.01 8.62-6.1 6.28zm-37.46-12.19c0-1.45 1.76-4.24 3.92-6.19 3.8-3.44 3.92-3.43 3.92 0.28 0 3.89-3.41 8.55-6.27 8.55-0.87 0-1.57-1.19-1.57-2.64zm-83.18 101.26c-0.652-0.65-1.115 0.51-1.03 2.58 0.094 2.28 0.559 2.75 1.185 1.18 0.567-1.42 0.497-3.11-0.155-3.76zm13.848-1.02c-0.545-1.35-0.99-0.25-0.99 2.45s0.445 3.8 0.99 2.45c0.544-1.35 0.544-3.55 0-4.9zm103.86 1.02c-0.65-0.65-1.11 0.51-1.03 2.58 0.1 2.28 0.56 2.75 1.19 1.18 0.56-1.42 0.49-3.11-0.16-3.76zm-123.48-2.98c-0.544-1.35-0.99-0.25-0.99 2.45s0.446 3.8 0.99 2.45 0.544-3.55 0-4.9zm54.681 2.25c1.59-5.01-1.18-8.23-5.62-6.52-3.27 1.25-4.45 6.86-1.97 9.33 2.6 2.6 6.3 1.23 7.59-2.81zm170.72-1.59c-1.4-2.27-8.93-3.01-8.93-0.88 0 0.69 1.54 2.4 3.43 3.79 3.69 2.73 7.68 0.61 5.5-2.91zm-213.74-3.57c-0.652-0.65-1.116 0.51-1.03 2.58 0.094 2.29 0.559 2.75 1.185 1.19 0.567-1.42 0.497-3.11-0.155-3.77zm226.39-3.22c0-1.41-2.43-3.68-5.4-5.05-6.67-3.08-22.66-8.01-23.44-7.23-0.86 0.85 7.31 8.19 15.11 13.57 7.05 4.86 13.73 4.23 13.73-1.29zm-22.23 1.59c0.32-1.01-2.24-3.81-5.68-6.21-8.27-5.78-11.78-1.68-4.25 4.95 5.03 4.43 8.79 4.9 9.93 1.26zm-78.6-6.21c-0.66-0.65-1.12 0.5-1.03 2.57 0.09 2.29 0.55 2.75 1.18 1.19 0.57-1.42 0.5-3.11-0.15-3.76zm10.58-4.57c0-2.1-0.88-3.81-1.96-3.81s-1.96 2.26-1.96 5.02c0 2.85 0.85 4.49 1.96 3.81 1.08-0.67 1.96-2.93 1.96-5.02zm101.58 2.94c5.59-3.91 5.49-5.48-0.52-8.7-4.27-2.28-5.39-2.16-8.85 0.96-3.7 3.36-3.75 3.82-0.69 7.19 3.96 4.38 4.55 4.41 10.06 0.55zm-213.4-3.32c0-2.3-2.858-1.72-3.678 0.74-0.405 1.21 0.257 1.87 1.471 1.47 1.214-0.41 2.207-1.4 2.207-2.21zm164.76-3.54c0.02-0.61-3.91-3.88-8.73-7.28-5.79-4.08-9.22-5.43-10.11-3.99-0.75 1.19-0.55 1.69 0.42 1.11 0.98-0.59 4.84 2.77 8.57 7.46 4.64 5.83 7.28 7.79 8.31 6.17 0.83-1.31 1.53-2.87 1.54-3.47zm-172.61-0.38c0-2.3-2.858-1.73-3.679 0.73-0.405 1.22 0.258 1.88 1.471 1.48 1.214-0.41 2.208-1.4 2.208-2.21zm-7.138-2.45c0.621-1.62 0.274-2.95-0.771-2.95-1.046 0-1.901 1.33-1.901 2.95 0 3.76 1.226 3.76 2.672 0zm222.01-4.85c6.45-4.29 12.83-7.82 14.18-7.85s2.45-0.78 2.45-1.66c0-0.87 2.87-3.11 6.38-4.95 3.5-1.85 11.23-6.82 17.16-11.05 10.29-7.33 17.33-10.17 14.71-5.93-0.67 1.09 0.16 2.51 1.84 3.16 3.37 1.29 4.26 6.64 1.11 6.64-1.08 0-1.96 1.04-1.96 2.3 0 1.27 2.04 0.39 4.54-1.96 2.49-2.34 5.45-4.26 6.56-4.26s3.62-1.77 5.57-3.93c1.96-2.16 5.07-3.92 6.93-3.92 3.12 0 9.34-5.33 7.58-6.49-0.43-0.28-2.26-1.64-4.08-3.03-4.73-3.61-12.07 0.43-10.39 5.71 1.37 4.32-3.8 5.53-5.77 1.36-0.64-1.35-0.72-0.12-0.18 2.73 1.09 5.77-3.74 9.44-5.7 4.34-2.17-5.66-1.12-8.43 4.26-11.26l5.39-2.83-4.9-1.04c-2.7-0.57-8.44-1.61-12.76-2.31-11.53-1.87-22.65-7.54-30.26-15.43-5.22-5.42-7.31-6.49-9.36-4.78-1.46 1.21-3.29 1.51-4.08 0.67-0.78-0.84-0.3-1.93 1.07-2.42s3.57-1.96 4.9-3.27 4.19-3.1 6.34-3.98c2.51-1.02 3.04-1.92 1.48-2.51-1.35-0.5-2.46-2.21-2.46-3.81 0-1.59-0.84-2.37-1.87-1.73-1.04 0.64-1.42 2.37-0.85 3.84 0.57 1.48-0.13 2.64-1.56 2.57-9.43-0.41-13.05 3.6-9.4 10.42 1.76 3.28-0.08 5.1-15.21 14.98-9.47 6.19-18.54 12.69-20.15 14.44-1.62 1.76-5.15 3.78-7.85 4.49-2.7 0.7-9.15 3.97-14.35 7.26-7.88 4.99-9.34 6.82-8.83 11.14 1.03 8.67 26.07 21.22 43.82 21.97 2.18 0.09 9.24-3.34 15.7-7.62zm11.19-73.77c1.86-1.95 3.92-3.01 4.58-2.35 0.66 0.65-0.87 2.25-3.39 3.54-4.38 2.25-4.43 2.2-1.19-1.19zm9.85 78.83c4.46-3.38 4.35-4.07-1.21-7.71-4.15-2.72-5.1-2.73-8.87-0.09l-4.23 2.96 4.46 3.72c5.31 4.43 5.47 4.45 9.85 1.12zm14.91-10.23l4.5-3.16-5.22-2.7c-3.76-1.95-6.27-2.15-8.97-0.71-4.63 2.48-4.68 3.67-0.31 6.99 4.4 3.34 4.65 3.33 10-0.42zm14.65-11.8c-0.2-0.95-2-2.82-4.01-4.15-2.98-1.98-4.48-1.86-8.08 0.67l-4.41 3.09 4.34 3.77c3.81 3.3 4.85 3.43 8.43 1.05 2.25-1.49 3.93-3.49 3.73-4.43zm11.19 2.15c3.61-4.35 1.56-4.85-2.49-0.61-1.89 1.98-2.66 3.6-1.71 3.6s2.84-1.35 4.2-2.99zm-119.56-10.24c4.31-4.88 4.34-5.03 0.33-1.65-6.03 5.09-7.28 3.07-1.77-2.87 2.45-2.65 4.41-5.58 4.35-6.52-0.14-2.01-19.44-22.62-20.39-21.77-0.35 0.32 0.37 2.48 1.62 4.81 2.77 5.18 7.86 24.31 7.86 29.55 0 5.26 2.38 4.8 8-1.55zm-6.04-6.39c0-1.08 0.89-1.96 1.96-1.96 1.08 0 1.97 0.88 1.97 1.96s-0.89 1.96-1.97 1.96c-1.07 0-1.96-0.88-1.96-1.96zm134.39 9.81c-1.55-2.51-2.94-2.51-2.94 0 0 1.08 0.93 1.96 2.08 1.96 1.14 0 1.53-0.88 0.86-1.96zm-203.73-8.37c-0.54-1.33-0.94 0.23-0.9 3.47 0.04 3.23 0.48 4.32 0.97 2.41 0.5-1.91 0.47-4.56-0.07-5.88zm-15.69-7.85c-0.54-1.33-0.95 0.23-0.91 3.47s0.48 4.32 0.98 2.41 0.46-4.55-0.07-5.88zm-4.33-2.72c0.85-4.03 0.47-6.71-1.1-7.68-1.66-1.02-2.03-0.5-1.2 1.66 0.66 1.74 0.39 6.02-0.62 9.51-1 3.5-1.05 5.53-0.1 4.53 0.95-1.01 2.31-4.62 3.02-8.02zm24.54 2.97c-0.97-3.39-1.22-7.06-0.54-8.15 0.7-1.14 0.25-1.39-1.05-0.59-2.02 1.26-1.4 9.01 1.08 13.43 1.9 3.39 2.16 1.05 0.51-4.69zm85.23-0.19c3.59-2.4 5.03-1.68 3.87 1.94-0.65 2.01-0.42 2.6 0.55 1.42 0.91-1.1 10.04-7.64 20.3-14.52 21.83-14.66 24.46-16.86 17.67-14.8-4.55 1.38-4.69 1.24-1.96-2.08 2.68-3.27 2.44-3.26-2.95 0.21-13.84 8.88-33.1 22.85-30.11 21.82 1.8-0.61 9.14-5.23 16.34-10.25 7.19-5.03 13.59-8.62 14.23-7.98 1.41 1.41 2.71 0.37-15.79 12.66-8.42 5.6-16.13 9.68-17.12 9.06-2.92-1.8-9.76 2.82-9.59 6.49 0.13 2.72 0.37 2.8 1.28 0.42 0.61-1.62 2.09-3.59 3.28-4.39zm-125.64 1.45c0.62-1.62 0.27-2.95-0.77-2.95-1.05 0-1.9 1.33-1.9 2.95 0 3.76 1.22 3.76 2.67 0zm32.54-5.61c-1.89-1.74-2.15-1.44-1.17 1.35 0.7 1.98 1.38 4.63 1.5 5.89 0.13 1.26 0.65 0.65 1.17-1.35 0.51-2-0.16-4.65-1.5-5.89zm18.77-2.03c-7.11-7.12-8.9-6.45-2.01 0.75 3.09 3.23 5.96 5.53 6.37 5.11 0.41-0.41-1.55-3.05-4.36-5.86zm75.4-0.83l6.61-5.52-5.63-5.21c-4.12-3.83-6.05-4.58-7.25-2.82-1.13 1.65-1.46 1.32-1.07-1.03 0.32-1.9-1.94-5.44-5.1-7.98-3.12-2.51-5.28-5.75-4.8-7.2 0.57-1.7 5.65 2 14.26 10.41l13.37 13.05 5.8-4.88c3.19-2.68 6.61-4.88 7.61-4.88 0.99 0 1.81-1.32 1.81-2.94s-0.67-2.94-1.49-2.94c-2.71 0-20.12-16.63-20.1-19.21 0-1.39 3.32 0.49 7.36 4.18 4.05 3.69 9.97 8.91 13.16 11.61l5.81 4.9 7.44-4.93c4.09-2.71 7.44-5.52 7.44-6.25s-3.51-3.92-7.81-7.09c-4.29-3.18-7.82-6.44-7.84-7.25-0.1-3.1 5.06-1.19 9.56 3.56 8.13 8.57 10.59 9.01 19.02 3.4 4.22-2.81 8.03-5.41 8.48-5.79 0.8-0.66-8.28-9.85-16.95-17.14-4.08-3.43-4.68-3.46-9.25-0.47-2.69 1.76-6.24 3.2-7.9 3.2-2.03 0-3.01 1.9-3.01 5.82 0 3.83-1.35 6.54-3.96 7.94-4.31 2.3-6.38 1.56-13.36-4.73-4.51-4.07-4.61-4.07-7.36-0.32-2.33 3.19-2.79 3.29-2.79 0.61 0-1.76 0.89-3.75 1.97-4.41 1.08-0.67 1.96-3.74 1.96-6.83 0-7.53 1.92-12.07 4.44-10.51 1.34 0.83 1.62-0.37 0.78-3.45-0.71-2.59-1.85-9.35-2.54-15.02l-1.26-10.29-4.9 4.9c-2.7 2.7-5.67 4.9-6.6 4.9s-1.72 3.31-1.76 7.36c-0.04 4.04-1.14 9.23-2.45 11.53-3.29 5.75-15 15.26-16.69 13.56-1.27-1.28 4.53-7.04 10.51-10.46 1.34-0.76 2.61-4.04 2.83-7.27 0.74-10.93 0.28-11.39-6.05-6.06-3.32 2.79-6.86 5.07-7.85 5.07-1 0-1.81 4.42-1.81 9.81 0 11.08-2.16 13.99-17.21 23.27-1.99 1.23-1.85 3.12 0.69 9.25 1.76 4.24 3.42 7.95 3.7 8.25 0.9 0.97 12.79-6.37 12.8-7.9 0.01-0.81 0.87-1.48 1.92-1.48 3.64 0-0.46 6.06-6.06 8.96-7.44 3.84-7.07 6.6 1.75 13.13 4.02 2.98 10.4 8.45 14.18 12.16 3.77 3.71 7.34 6.79 7.92 6.85s4.03-2.38 7.67-5.42zm-19.52-36.26c0-1.55 3.48-5.12 7.73-7.93 7.32-4.84 7.63-5.45 5.89-11.53-2.88-10.01-1.97-13.13 1.42-4.94 2.52 6.08 2.64 8.42 0.67 13.18-1.32 3.18-4.06 6.32-6.1 6.96-2.03 0.65-5.03 2.51-6.65 4.13-2.51 2.51-2.96 2.53-2.96 0.13zm-6.6-4.35c-0.68-1.78-1.17-5.59-1.08-8.47 0.15-5.09 0.24-5.05 3.06 1.42 1.78 4.08 2.2 7.35 1.08 8.47-1.12 1.11-2.3 0.57-3.06-1.42zm20.34-31.9c0-2.28 11.82-10.86 13.14-9.54 0.58 0.59-0.17 2.29-1.67 3.79-3.92 3.92-11.47 7.7-11.47 5.75zm-134.27 64.2c1.55-1.29 2.82-3.24 2.82-4.33s-1.76 0.26-3.92 3c-2.16 2.75-3.79 7.06-3.63 9.59 0.26 4.11 0.38 4.04 1.1-0.66 0.44-2.89 2.07-6.31 3.63-7.6zm21.58 6.43c-0.66-0.65-2.72 0.4-4.58 2.35-3.24 3.39-3.19 3.45 1.19 1.2 2.52-1.29 4.05-2.89 3.39-3.55zm259.36 0.95c1.86-1.44 1.93-2.58 0.25-4.6-2.57-3.1-7.34-3.42-11.51-0.79-2.48 1.57-2.34 2.38 0.98 5.61 3.8 3.69 5.27 3.66 10.28-0.22zm-272.26-9.73c0.05-8.72-2.87-6.16-3.37 2.95-0.33 5.96 0.08 7.49 1.44 5.39 1.04-1.62 1.91-5.37 1.93-8.34zm287.49 6.75c-0.6-0.6-2.18 0-3.51 1.34-1.93 1.94-1.7 2.17 1.09 1.1 1.94-0.74 3.03-1.83 2.42-2.44zm-32.36-1.95c1.59-1.39 16.68-11.59 33.53-22.68l30.65-20.16-12.03-2.06c-16.06-2.75-30.62-9.96-35.76-17.7-2.3-3.46-4.88-5.67-5.72-4.9-0.85 0.76-0.89 0.25-0.08-1.15 0.8-1.4 0.39-3.82-0.91-5.39-3.66-4.42-6.23-3.38-3.64 1.47 2.06 3.84 1.54 5-4.68 10.37-3.86 3.33-9.5 7.35-12.55 8.92-3.05 1.58-9.96 6.17-15.35 10.21-5.4 4.04-10.63 7.36-11.62 7.36s-3.37 1.42-5.28 3.15-4.55 2.79-5.87 2.35 3.9-4.83 11.59-9.75c7.7-4.92 13.44-9.5 12.76-10.18-1.51-1.51 5.1-9.1 7.91-9.1 1.11 0 4-1.86 6.42-4.14 2.42-2.27 5.4-3.8 6.62-3.39 1.22 0.4-2.68 3.81-8.67 7.56-5.98 3.76-10.88 7.48-10.9 8.27-0.01 0.8 2.85-0.39 6.35-2.63 3.51-2.24 8.8-5.54 11.76-7.33s5.39-4.79 5.4-6.68c0.02-4.52-2.24-4.33-8.66 0.71-2.9 2.28-5.63 3.79-6.07 3.35-1.52-1.52 1.46-9.41 3.15-8.36 1.91 1.17 9.15-2.3 13.16-6.31 2.21-2.2 2.19-3.08-0.09-5.36-2.33-2.33-3.43-2.2-7.5 0.93-2.62 2.02-5.77 3.69-7 3.71-1.22 0.03-2.82 4.03-3.55 8.89-1.28 8.53-1.92 9.23-18.37 19.92-21.49 13.97-20.75 13.23-18.22 17.98 1.67 3.11 1.46 4.68-0.93 7.07-1.7 1.7-3.9 3.08-4.91 3.08-3.09 0-2.03 3.37 2.9 9.23 9.45 11.23 47.93 19.96 56.16 12.74zm-48.15-38.6c3.23-2.67 8.3-5.87 11.28-7.1 2.98-1.24 5.42-3.02 5.42-3.97s0.94-1.73 2.08-1.73c3.38 0 0.32 3.35-8.51 9.31-11.25 7.6-17.98 9.88-10.27 3.49zm74.42 37.02c3.93-1.51 4.02-5.88 0.16-7.36-2.85-1.1-8.83 0.24-8.83 1.98 0 0.78 4.46 6.32 5.23 6.5 0.18 0.04 1.73-0.46 3.44-1.12zm-309.48-7.3c-2.43-4.68-3.005-4.89-6.409-2.29-3.171 2.43-3.307 3.14-0.891 4.73 1.567 1.03 3.492 1.47 4.278 0.99 0.782-0.49 2.022 0.07 2.742 1.24 2.64 4.26 2.88 0.33 0.28-4.67zm20.03-5.97c-0.21-3.97-0.27-3.98-1.19-0.25-0.53 2.16-1.97 5.25-3.21 6.86-1.95 2.56-1.79 2.6 1.2 0.25 1.88-1.48 3.33-4.57 3.2-6.86zm304.32 1.77c0-3.77-7.7-5.93-10.5-2.95-1.7 1.81-1.65 2.62 0.2 3.3 1.35 0.49 2.45 2.18 2.45 3.75 0 2.24 0.84 2.4 3.93 0.74 2.15-1.15 3.92-3.33 3.92-4.84zm-313.9-0.83c0-1.99-5.98-4.7-7.34-3.33-0.5 0.49-0.32 1.84 0.39 2.99 1.57 2.53 6.95 2.79 6.95 0.34zm330.49-2.04c0.62-1 0.38-2.29-0.54-2.85-0.91-0.57-1.66 0.25-1.66 1.82 0 3.31 0.62 3.6 2.2 1.03zm28-7.49c-0.78-3.27-0.89-3.27-2.32 0-0.82 1.89-0.82 4.98 0 6.87 1.43 3.27 1.54 3.27 2.32 0 0.45-1.89 0.45-4.98 0-6.87zm-35.35 4.17c0.4-1.21-1.25-2.72-3.68-3.35-5.35-1.4-6.02-0.88-4.38 3.41 1.38 3.58 6.86 3.54 8.06-0.06zm14.3-1.72c1.41-1.69 1.6-2.94 0.45-2.94-1.09 0-2.5 1.32-3.12 2.94-1.44 3.75-0.44 3.75 2.67 0zm-323.79-13.74c0.1-2.38 8.85-10.76 16.31-15.6 3.67-2.39 8.78-3.46 15.7-3.28 10.05 0.25 21.04-2.69 21.04-5.63 0-0.82 2.65-2.59 5.89-3.93 5.83-2.41 8.19-7.85 3.4-7.85-3.44 0-16.69-7.27-21.63-11.88-2.25-2.1-4.83-3.81-5.73-3.81s-2.49-2.23-3.53-4.96c-1.03-2.72-3.14-5.43-4.67-6.02-2.24-0.86-22.7 10.62-26.7 14.98-0.54 0.59-7.6 5.2-15.69 10.25s-15.599 9.87-16.678 10.71-5.714 4.07-10.3 7.19c-4.585 3.11-8.338 6.32-8.338 7.13s2.761 3.56 6.134 6.11c3.374 2.55 7.588 5.96 9.364 7.58s8.062 5.3 13.968 8.17l10.74 5.23 5.32-6.21c2.93-3.41 5.36-7.09 5.4-8.18zm363.03 6.88c0-4.32-0.88-7.85-1.96-7.85s-1.96 3.53-1.96 7.85c0 4.31 0.88 7.84 1.96 7.84s1.96-3.53 1.96-7.84zm-45.12 1.73c0-1.08-0.89-1.42-1.96-0.75-1.08 0.66-1.97 2.09-1.97 3.17s0.89 1.42 1.97 0.75c1.07-0.67 1.96-2.09 1.96-3.17zm60.82-1.69c0-2.01-0.57-5.12-1.26-6.91-1.89-4.93-4.09 0-3.08 6.89 0.9 6.17 4.34 6.19 4.34 0.02zm15.69-2.99c0-3.77-0.88-6.86-1.96-6.86s-1.96 3.09-1.96 6.86c0 3.78 0.88 6.87 1.96 6.87s1.96-3.09 1.96-6.87zm-82.4 2.95c0-1.08-0.93-1.97-2.08-1.97-1.14 0-1.53 0.89-0.86 1.97 1.55 2.51 2.94 2.51 2.94 0zm22.82-7.51c2.12-1.42 7.45-4.96 11.84-7.84 24.97-16.4 31.16-20.63 32.05-21.9 0.54-0.77 2.96-2.45 5.39-3.73 6.62-3.48 5.41-6.77-4.94-13.47-8.54-5.53-22.03-19.79-22.03-23.27 0-0.79-1.41-2.98-3.12-4.88-1.72-1.89-3.83-6.61-4.71-10.48-1.34-5.96-0.96-7.48 2.51-9.91 5.04-3.52 3.23-6.04-2.23-3.12-2.18 1.17-4.24 4.45-4.59 7.3-0.51 4.25-6.03 8.79-31.03 25.5-16.72 11.18-31.47 21.22-32.77 22.3-3.54 2.92-6.5 2.37-5.21-0.98 0.71-1.86-0.02-2.95-1.99-2.95-3.87 0-6.46-9.28-3.44-12.3 1.22-1.22 2.14-3.58 2.06-5.26-0.1-2.02-0.49-2.21-1.14-0.58-0.55 1.34-2.2 2.45-3.66 2.45-3.38 0-2.9 11.72 0.65 15.78 1.38 1.57 4.45 6.82 6.83 11.67 6.92 14.06 19.74 20.74 44.07 22.97 6.74 0.62 12.26 1.88 12.26 2.79 0 0.92-3.53 3.9-7.85 6.63-9.03 5.7-9.54 7.15-3.43 9.83 3.3 1.45 5.2 1.19 7.52-1.01 1.71-1.61 4.84-4.11 6.96-5.54zm79.2 2.6c0-3.78-0.88-6.87-1.96-6.87s-1.96 3.09-1.96 6.87 0.88 6.87 1.96 6.87 1.96-3.09 1.96-6.87zm19.04-5.39c-0.47-2.43-0.85-0.45-0.85 4.41s0.38 6.84 0.85 4.41c0.47-2.42 0.47-6.4 0-8.82zm-346 7.27c-0.64-1.67-1.58-2.61-2.09-2.09-0.52 0.51-0.36 1.87 0.35 3.02 1.94 3.13 3.07 2.53 1.74-0.93zm364.24-2.74c0-3.18-0.89-6.32-1.97-6.99-1.16-0.72-1.96 1.62-1.96 5.77 0 3.84 0.88 6.99 1.96 6.99s1.97-2.6 1.97-5.77zm-110.85 1.84c0.67-1.08 0.33-1.96-0.75-1.96s-2.51 0.88-3.17 1.96c-0.67 1.08-0.33 1.96 0.74 1.96 1.08 0 2.51-0.88 3.18-1.96zm124.58-5.23c0-8.34-1.81-7.7-3.2 1.12-0.57 3.57-0.1 6.07 1.12 6.07 1.14 0 2.08-3.23 2.08-7.19zm19.62 0.33c0-2.57-0.89-5.22-1.96-5.89-1.17-0.72-1.97 1.65-1.97 5.89 0 4.23 0.8 6.61 1.97 5.88 1.07-0.66 1.96-3.31 1.96-5.88zm15.08-4.42c-0.49-1.89-0.89-0.34-0.89 3.44 0 3.77 0.4 5.32 0.89 3.43 0.5-1.89 0.5-4.98 0-6.87zm18.27 2.34c0-4.16-0.8-6.49-1.96-5.77-3.26 2.01-2.15 12.75 1.31 12.75 0.35 0 0.65-3.14 0.65-6.98zm17.66-0.87c0-3.23-0.89-5.88-1.97-5.88-1.07 0-1.96 2.65-1.96 5.88 0 3.24 0.89 5.89 1.96 5.89 1.08 0 1.97-2.65 1.97-5.89zm-452.38 2.46c0.81-0.81 2.08-1.47 2.83-1.47 0.74 0 3.98-2.44 7.19-5.42s7.24-5.86 8.95-6.41c3.27-1.04 4.98-13.67 2.1-15.45-0.84-0.52-4.04 1.21-7.11 3.84-3.07 2.64-6.32 4.8-7.24 4.8-0.91 0-1.65 3.58-1.65 7.96s-0.77 7.49-1.7 6.91c-0.94-0.57-1.27-3.27-0.75-6 1.19-6.24-0.09-6.2-8.53 0.23-6.44 4.91-6.62 5.37-3.49 8.83 3.48 3.84 6.94 4.64 9.4 2.18zm473.96-4.53c0-3.5-0.82-5.5-1.97-4.79-2.55 1.58-2.55 10.79 0 10.79 1.08 0 1.97-2.7 1.97-6zm-205.02 2.07c0.67-1.07 0.33-1.96-0.75-1.96s-2.51 0.89-3.17 1.96c-0.67 1.08-0.33 1.97 0.75 1.97s2.5-0.89 3.17-1.97zm224.64-4.03c0-2.1-0.89-3.81-1.97-3.81s-1.96 2.26-1.96 5.02c0 2.84 0.85 4.49 1.96 3.81 1.08-0.67 1.97-2.93 1.97-5.02zm-417.2-5.59c-0.5-10.31-14.42-19.44-14.42-9.45 0 4.42 4.69 12.82 8.72 15.61 3.76 2.61 6 0.2 5.7-6.16zm-9.22-3.06c-0.61-1.59-0.35-3.35 0.57-3.92 1.39-0.86 4.04 3.06 4.04 5.97 0 2.12-3.63 0.5-4.61-2.05zm57.3 6.58c-4.23-2.68-6.31-2.01-3.66 1.18 1.33 1.6 3.3 2.38 4.37 1.71 1.19-0.73 0.91-1.86-0.71-2.89zm180.78 1.49c7.01-0.62 25.99-1.62 42.18-2.22 16.18-0.6 36.93-1.51 46.1-2.02s30.76-1.47 47.98-2.12c17.22-0.66 35.32-1.41 40.22-1.67 9.24-0.5 46.82-10.34 49.91-13.07 0.97-0.85-2-3.06-6.59-4.9-4.6-1.84-22.46-10.27-39.68-18.73-17.23-8.47-31.68-15.4-32.11-15.4-1.13 0-32.28-14.5-50.9-23.7-18-8.89-22.31-9.83-12.77-2.79 6.37 4.69 9.73 8.47 9.8 11 0.01 0.65-6.38 5.42-14.2 10.6s-14.52 10.16-14.88 11.08c-0.36 0.91-1.91 1.66-3.45 1.66s-4.31 1.77-6.16 3.92c-1.84 2.16-3.92 3.93-4.61 3.93-0.7 0-7.78 4.45-15.75 9.9s-18.03 12.2-22.34 15.02c-23.54 15.33-28.45 18.88-28.45 20.56 0 1.01 0.66 1.44 1.47 0.96s7.21-1.38 14.23-2.01zm97.11-16.97c-0.65-1.04 1.59-3.58 4.97-5.63 8.51-5.18 2.97-6.59-6.53-1.66-4.09 2.12-8.04 3.26-8.77 2.52-1.22-1.22 1.97-4.1 6.2-5.59 2.12-0.75-2.15-9.25-4.65-9.25-0.97 0-1.6 2.42-1.4 5.39 0.31 4.54-0.49 5.49-5.04 6.02-5.39 0.62-9.58-4.07-6.34-7.09 0.82-0.76 1.89-0.28 2.37 1.07s2.24 2.45 3.9 2.45c2.58 0 2.63-0.46 0.32-3.24-1.48-1.79-2.66-3.77-2.63-4.42 0.08-1.6-4.87-0.4-11.32 2.75-3.09 1.51-5.85 1.87-6.49 0.83-1.39-2.24 3.26-9.05 8.87-12.98 3.91-2.73 4.32-2.65 5.31 1.15 0.84 3.19 2.11 3.84 5.76 2.93 2.69-0.68 4.68-0.31 4.68 0.87 0 1.12 2.43 2.32 5.39 2.66 3.93 0.46 5.37 1.69 5.29 4.55-0.09 3.29 1.17 3.92 7.85 3.92 5.49 0 7.95 0.85 7.95 2.73 0 3.53-14.13 12.55-15.69 10.02zm-24.53-21.69c0-1.15-0.88-1.53-1.96-0.87-2.51 1.56-2.51 2.95 0 2.95 1.08 0 1.96-0.94 1.96-2.08zm25.03-1.54c-11.59-5.02-21.08-10.19-21.09-11.48s2.42-3.68 5.38-5.3c19.03-10.4 15.3-10.36 36.52-0.38 10.53 4.95 19.97 9 20.99 9 3.76 0 1.68 5.67-2.57 7-2.43 0.76-4.86 1.94-5.4 2.63-1.19 1.52-11.41 8.1-12.19 7.85-0.31-0.09-10.05-4.29-21.64-9.32zm107.71 34.48c-0.54-1.33-0.95 0.23-0.91 3.47s0.48 4.32 0.98 2.41 0.46-4.55-0.07-5.88zm-529.82 1.7c0.58-1.51 2.54-3.26 4.35-3.89 1.82-0.63 8.16-4.73 14.09-9.11 5.94-4.38 20.95-14.76 33.35-23.08 12.41-8.32 23.01-15.61 23.55-16.21s12.68-8.87 26.99-18.37c24.44-16.23 33.15-23.18 25.23-20.14-2.95 1.13-19.81 12.44-76.75 51.48-20.81 14.27-24.71 17.09-27.65 20-1.36 1.35-3.12 2.45-3.9 2.45-0.79 0-4.32 2.21-7.86 4.9-3.54 2.7-6.92 4.91-7.52 4.91-1.79 0-8.98 6.63-8.98 8.28 0 2.63 3.99 1.67 5.1-1.22zm543.56-5.59c-0.54-1.35-0.99-0.24-0.99 2.45 0 2.7 0.45 3.8 0.99 2.46 0.55-1.35 0.55-3.56 0-4.91zm-387.99-0.67c5.56-7.07 5.29-17.75-0.76-31-4.67-10.2-17.64-25.45-25.2-29.64-2.96-1.63-3.21-2.86-1.49-7.35 1.65-4.34 1.5-5.4-0.77-5.4-1.56 0-3.77 1.77-4.93 3.92-1.42 2.66-1.44 3.93-0.07 3.93 1.12 0 2.03 0.85 2.03 1.9 0 3.26-5.87-0.18-6.11-3.58-0.2-2.87-0.33-2.85-1.11 0.11-0.48 1.84-2.45 3.84-4.38 4.46-4.43 1.4-8.02 9.19-7.99 17.31 0.03 5.77 5.43 26.48 5.73 21.95 0.07-1.09 2.12-2.86 4.54-3.92 2.73-1.2 4.66-4 5.04-7.33 0.84-7.34 7.82-7.21 15.85 0.29 4.84 4.53 6.09 7.3 6.09 13.51 0 6.01-0.85 8.03-3.71 8.78-2.03 0.53-4.82 0.28-6.2-0.57-2.75-1.71-9.7 1.82-9.73 4.94-0.04 4.56 12.37 12.07 20.64 12.5 7.05 0.36 9.07-0.41 12.53-4.81zm403.69-5.21c-0.55-1.35-0.99-0.25-0.99 2.45s0.44 3.8 0.99 2.45c0.54-1.35 0.54-3.56 0-4.9zm-393.68 0.25c0-1.07-0.88-1.41-1.96-0.75-1.08 0.67-1.96 2.1-1.96 3.18s0.88 1.42 1.96 0.75 1.96-2.1 1.96-3.18zm-62.18-16.03c3.2-2.24 3.27-3.01 0.73-7.91-2.35-4.54-3.28-5.02-5.58-2.89-1.52 1.4-4.72 3.65-7.1 5.01-3.51 2-4.34 1.99-4.34-0.04 0-1.39 3.09-4.18 6.86-6.21 6.37-3.43 6.87-4.38 6.87-13.01v-9.31l-6.09 5.7c-3.35 3.13-6.99 5.69-8.09 5.69-2.21 0-0.98 29.45 1.4 33.3 0.96 1.56 3.04 0.68 6.6-2.79 2.86-2.78 6.79-6.17 8.74-7.54zm71.06 8.27c1.59-5.01-0.28-7.27-3.42-4.14-1.27 1.28-2.95 2.33-3.73 2.33-2.28 0-0.38-16.48 1.99-17.27 1.19-0.39 2.17-3.38 2.17-6.62 0-4.26-1.1-6.2-3.93-6.94-2.15-0.56-3.92-1.8-3.92-2.75 0-2.46 2.73-2.15 5.49 0.62 1.84 1.83 2.36 1.28 2.36-2.46 0-3.09-2.33-6.66-6.56-10.03l-6.55-5.23 0.39 6.44c0.22 3.54 1.03 7.48 1.82 8.75 0.78 1.27 0.54 3.37-0.54 4.68-1.35 1.62-1.09 3.57 0.81 6.17 1.53 2.09 2.69 6.06 2.59 8.83l-0.2 5.02-1.57-4.91c-1.46-4.56-1.58-4.61-1.77-0.6-0.1 2.36 0.69 4.84 1.77 5.51 1.08 0.66 1.96 4.69 1.96 8.94 0 6.88 0.53 7.73 4.77 7.73 3.11 0 5.23-1.42 6.07-4.07zm402.08-7.86c-0.7-2.23-0.26-3.76 1.09-3.76 1.25 0 2.72 1.68 3.26 3.74 0.94 3.62 1.19 3.6 7.42-0.49 3.54-2.33 8.09-5.29 10.11-6.57 3.37-2.14 3.39-2.35 0.25-2.45-1.89-0.07-3.44-1-3.44-2.08s-0.78-1.96-1.73-1.96c-0.96 0-7.03-3.53-13.49-7.85-6.47-4.32-12.67-7.85-13.8-7.85-1.12 0-2.33-0.66-2.69-1.47s-7.46-5.58-15.78-10.6c-12.63-7.63-15.5-8.67-17.41-6.37-1.25 1.51-3.28 2.77-4.49 2.79-1.22 0.03-4.35 1.69-6.97 3.7l-4.76 3.66 11.63 5.77c6.39 3.17 16.92 8.72 23.39 12.32s14.42 8.01 17.66 9.81c4.3 2.39 6.05 4.94 6.5 9.52 0.34 3.45 1.48 5.73 2.53 5.08 1.06-0.65 1.38-2.88 0.72-4.94zm-438.42-0.91c0-4.95-7.73-14.62-11.69-14.62-1.12 0-2.05 1.87-2.05 4.16 0 3.18 0.6 3.67 2.54 2.06 3.35-2.78 7.94 4.27 6.25 9.59-0.84 2.66-0.28 3.8 1.87 3.8 1.99 0 3.08-1.76 3.08-4.99zm422.99-2.32c-0.66-0.65-1.12 0.51-1.03 2.57 0.09 2.29 0.55 2.75 1.18 1.19 0.57-1.42 0.5-3.11-0.15-3.76zm-224.84-1.51c1.34-1.62 3.52-2.95 4.84-2.95s3.99-1.76 5.95-3.92c1.95-2.16 4.46-3.92 5.57-3.92s3.84-1.66 6.07-3.69c4.04-3.68 19.24-14.52 36.91-26.32 5.13-3.43 9.32-6.68 9.31-7.24s-3.25-3.22-7.21-5.92c-6.01-4.09-6.58-5.02-3.42-5.62 2.07-0.39 4.22-1.33 4.76-2.08s8.04-3.81 16.67-6.81c8.63-2.99 24.02-8.53 34.19-12.3 15.42-5.72 19.28-6.49 23.28-4.67 4.69 2.14 4.76 2.04 3.49-4.77-0.72-3.83-3.47-11.27-6.12-16.54-2.64-5.26-4.82-10.77-4.84-12.23-0.01-1.46-1.78-7.96-3.93-14.43l-3.9-11.773 0.26 9.813c0.14 5.39 0.15 10.8 0.01 12.02-0.33 2.81-19.36 11.09-21.9 9.52-1.04-0.65-1.9-2.35-1.9-3.79s-1.55-6.07-3.44-10.3l-3.44-7.68-13.24 6.09c-8.32 3.84-12.55 6.79-11.39 7.97 1.01 1.02 2.43 6.36 3.15 11.85l1.32 9.99-8.9 5.22c-14.79 8.66-17.03 7.05-17.03-12.19 0-9.88-0.46-11.19-3.92-11.19-2.81 0-3.93 1.31-3.93 4.6 0 2.53-0.85 4.07-1.9 3.43-2.68-1.66-4.68 7.74-3.22 15.07 0.68 3.38 3.43 9.03 6.12 12.55 2.69 3.53 4.89 7.33 4.89 8.46s2.2 3.49 4.9 5.26c4.8 3.14 6.74 8.65 3.05 8.65-1.02 0-5.7-4.73-10.41-10.51-6.13-7.53-9.27-13.68-11.07-21.69-2.33-10.43-5.59-13.45-7.69-7.13-0.52 1.55 0.02 2.05 1.34 1.23 3.01-1.86 2.83 2.48-0.23 5.44-1.35 1.31-6.87 4.92-12.26 8.03-5.4 3.11-10.25 6.17-10.79 6.81-2.11 2.49-14.9 11.31-18.15 12.51-1.89 0.69-3.43 2.17-3.43 3.29 0 1.11-1.77 2.02-3.93 2.02s-3.92-0.88-3.92-1.96 0.82-1.96 1.82-1.96 2.99-1.13 4.41-2.51c1.43-1.37 10.29-7.59 19.7-13.81 16.03-10.6 21.36-15.08 17.99-15.08-0.79 0-2.96 1.39-4.82 3.07-3.19 2.89-3.47 1.8-4.68-18.14-1.5-24.73-5.33-37.527-4.44-14.84 0.3 7.82-0.14 14.22-0.98 14.22s-1.65-5.96-1.79-13.24c-0.35-18.594-0.85-22.016-3.61-24.657-1.92-1.83-2.21-1.076-1.36 3.564 0.59 3.237 1.65 14.713 2.35 25.503 0.71 10.79 1.96 23.33 2.79 27.85 1.13 6.21 0.84 8.49-1.17 9.26-1.73 0.67-2.73-0.5-2.85-3.33-0.1-2.39-1.3-18.48-2.66-35.74-2.35-29.814-2.48-30.473-2.76-13.13-0.19 12.3-0.96 17.85-2.36 16.98-1.4-0.86-1.76 1.52-1.11 7.24 0.54 4.69 1.19 12.5 1.44 17.36 0.41 7.84 0.59 7.41 1.65-3.93l1.2-12.75 0.92 14.2c0.62 9.53 0.12 15.29-1.51 17.52-1.34 1.82-2.84 2.91-3.33 2.42s-1.47-8.37-2.18-17.52c-0.71-9.14-1.96-23.68-2.77-32.31l-1.48-15.7-0.28 15.53c-0.52 28.46-1.77 18.63-5.35-42.015-0.66-11.329-1.56-20.967-2-21.417-1.5-1.565-3.14 1.578-3.43 6.575-0.32 5.542-0.91 5.707-11.58 3.231-4.04-0.94-7.35-0.973-7.35-0.073 0 0.899 3.86 2.213 8.57 2.921 7.75 1.162 8.79 1.975 10.8 8.458 1.86 5.986 6.04 45.58 6.11 57.81 0.01 1.95 0.91 3 2 2.32 2.69-1.66 3.42 1.41 4.58 19.21l1 15.27-7.79 5.16c-4.59 3.04-7.38 6.23-6.79 7.77 0.56 1.46-1.36 4.14-4.32 6.03-11.1 7.1-12.08 9.55-7.79 19.48 3.98 9.21 15.42 22.15 26.81 30.32 11.68 8.38 14.2 9.04 17.83 4.68zm69.3-88.49c-1.2-3.11 3.65-8.63 7.58-8.63 3.3 0 1.42 7.8-2.36 9.83-3.17 1.69-4.21 1.46-5.22-1.2zm-69.3-7.97c0-10.9 0.94-10.61 2.69 0.81 0.79 5.16 0.52 8.34-0.71 8.34-1.09 0-1.98-4.12-1.98-9.15zm81.56 2.69c-0.88-3.02-1.05-6.04-0.38-6.71 2.19-2.19 3.49 0.94 2.73 6.62l-0.75 5.57-1.6-5.48zm5.34-4.56c-0.18-6.33 0.12-6.78 2.75-4.14 1.85 1.84 2.46 4.51 1.64 7.1-2.02 6.37-4.17 4.92-4.39-2.96zm112.79 93.15c-0.49-1.47-1.38-0.58-2.07 2.08-0.85 3.26-0.6 4.03 0.86 2.57 1.14-1.14 1.68-3.23 1.21-4.65zm-340.38-11.75c1.93-2.02 4.36-3.67 5.39-3.67 6.34 0-2.9-25.72-11.83-32.95-3.88-3.14-4.73-5.39-4.23-11.22 0.42-4.87-0.08-6.85-1.5-5.97-1.17 0.73-2.13 3.92-2.13 7.09s-0.66 5.77-1.47 5.77-1.31-4.41-1.11-9.8c0.23-6.31-0.64-10.8-2.46-12.61-4.45-4.46-3.47-6.19 7.49-13.15 5.67-3.59 11.47-7.66 12.89-9.03 1.43-1.37 3.35-2.49 4.28-2.49 0.92 0 2.85-1.11 4.27-2.47 1.43-1.36 9.21-6.87 17.31-12.25 18.17-12.08 20.71-14.41 18.29-16.83-1.18-1.17-3.57-0.04-6.5 3.07-2.54 2.71-5.4 4.93-6.34 4.93s-3.66 1.99-6.04 4.42c-2.37 2.43-5.48 4.65-6.9 4.95-1.43 0.29-4.95 2.72-7.83 5.39s-5.85 4.86-6.59 4.86c-0.75 0-2.55 1.11-4 2.45-4.31 4-15.01 11.28-16.68 11.36-0.86 0.03-4.03 2.09-7.06 4.57-4.87 3.99-5.15 4.8-2.45 7.04 3.02 2.5 4.41 14.27 1.58 13.33-1.78-0.59-2.45 1.16-2.45 6.38 0 5.42 3.87 4.96 4.15-0.5 0.18-3.58 0.4-3.73 1.16-0.8 0.52 2.04-0.91 5.57-3.32 8.13-3.04 3.23-3.58 4.93-1.92 5.96 1.28 0.79 3.02 0.32 3.87-1.06 0.85-1.37 2.85-2 4.44-1.39 3.68 1.42 6.51 18.71 3.54 21.67-1.16 1.17-2.22 1.5-2.36 0.75-0.13-0.76-0.46-2.26-0.73-3.34s-0.61-3.43-0.74-5.23c-0.14-1.8-0.7-2.81-1.27-2.25-0.56 0.56-1.31 8.99-1.67 18.73l-0.66 17.71 9.03-3.94c4.97-2.17 10.62-5.6 12.55-7.61zm52.5-7.92c16.13-10.97 29.33-20.73 29.33-21.7 0-0.96-1.1-1.09-2.45-0.29-3.68 2.19-14.09 9.42-15.21 10.56-2.42 2.47-17.76 11.75-19.41 11.75-1.01 0-2.23 1.11-2.72 2.45-0.48 1.35-1.52 1.86-2.31 1.13-0.79-0.74 0.42-2.92 2.68-4.85 4.87-4.18 5.13-5.76 1.16-7.28-5.92-2.28-9.31 0.89-8.21 7.67 0.8 4.92 0.03 7.32-3.35 10.5-2.41 2.26-6.04 4.12-8.07 4.12-3.54 0-3.54-0.11 0.13-2.88 2.09-1.59 3.04-2.91 2.1-2.95-0.94-0.03-0.56-1.45 0.85-3.15 2-2.41 2.04-3.42 0.18-4.57-1.32-0.82-1.82-2.99-1.11-4.83 1.52-3.97-2.85-20.86-5.4-20.86-0.98 0-1.31 4.63-0.73 10.3 0.74 7.35 0.54 8.9-0.71 5.39-3.13-8.78-11.26-22.57-13.11-22.22-4.74 0.89-5.26 6.23-1.13 11.49 2.35 2.99 4.82 8.84 5.49 12.99 0.72 4.51 2.29 7.55 3.9 7.55 1.48 0 2.82 2.2 2.98 4.91 0.16 2.69 0.38 5.93 0.49 7.19 0.33 3.83-4.31 4.07-5.29 0.27-0.7-2.67-0.98-2.41-1.15 1.09-0.2 3.99 0.45 4.46 4.68 3.39 2.83-0.71 4.9-0.38 4.9 0.77 0 1.1 0.49 2 1.08 2s14.28-8.97 30.41-19.94zm-33.31 6.84c0.07-1.97 0.83-5.34 1.67-7.5 1.48-3.8 1.58-3.78 2.94 0.5 0.93 2.93 0.37 5.45-1.67 7.5-2.8 2.79-3.07 2.74-2.94-0.5zm324.55 2.28c-6.47-3.73-12.57-6.8-13.55-6.81-0.97-0.01-4.67-2.23-8.2-4.93-7.5-5.72-8.66-5.97-8.66-1.9 0 1.65 1.55 3.51 3.44 4.13 5.08 1.68 24.28 10.36 29.91 13.54 2.7 1.52 5.79 2.76 6.87 2.76 1.08-0.01-3.33-3.06-9.81-6.79zm-31.62-0.07c0.67-1.75 0.34-2.53-0.77-1.85-1.07 0.66-1.94 2.03-1.94 3.05 0 2.82 1.4 2.2 2.71-1.2zm6.32-4.27c-0.65-0.65-1.11 0.5-1.03 2.57 0.09 2.29 0.56 2.75 1.19 1.19 0.56-1.42 0.49-3.11-0.16-3.76zm-356.28-2.61c0-1.02-1.3-1.85-2.89-1.85-1.75 0-2.44 1.15-1.75 2.93 1.16 3.02 4.64 2.21 4.64-1.08zm69.96-4.3c-0.54-1.35-0.99-0.24-0.99 2.45 0 2.7 0.45 3.8 0.99 2.45 0.54-1.34 0.54-3.55 0-4.9zm264.86 3.52c0-1.57-0.73-2.4-1.63-1.85-2.12 1.31-2.12 4.71 0 4.71 0.9 0 1.63-1.29 1.63-2.86zm-337.65-7.33c1.03-3.25 0.08-5.4-3.9-8.83-2.9-2.49-4.33-4.53-3.19-4.53s2.08-1.54 2.1-3.43c0.02-2.88 0.32-2.97 1.85-0.55 2.13 3.37 2.99 2.74 4.95-3.62l1.43-4.65-7.88 4.43c-7.1 3.99-7.94 5.29-8.57 13.16-0.38 4.81 0.12 9.24 1.11 9.85s1.17 0.1 0.4-1.15c-2.06-3.33 1.86-2.76 4.72 0.68 3.38 4.07 5.38 3.68 6.98-1.36zm77.96-11.28c2.38-1.47 6.49-4.08 9.13-5.8 4.49-2.92 4.72-2.9 3.5 0.3-0.73 1.88-0.88 3.42-0.35 3.42s1.81-2.21 2.83-4.91c1.9-4.99-0.68-14.15-4.8-17.05-2.39-1.68-7.33 2.14-5.85 4.53 0.59 0.96-0.16 1.74-1.66 1.74-4.92 0-5.41-2.55-0.92-4.78 5.81-2.88 7.16-10.92 1.84-10.92-2.1 0-4.97 1.39-6.37 3.08s-5.04 4.36-8.09 5.93c-6.57 3.4-6.85 6.21-1.62 15.98 2.16 4.02 4.57 10.42 5.36 14.22 1.26 6.06 1.51 6.29 2.05 1.92 0.35-2.74 2.57-6.19 4.95-7.66zm-6.47-2.99c0-1.67 16.1-12.82 18.44-12.78 1.19 0.03-0.05 1.82-2.74 3.99-5.87 4.72-15.7 10.22-15.7 8.79zm-3.92-11.84c0-1.62 1.43-2.94 3.18-2.94 2.61 0 2.74 0.53 0.74 2.94-3.07 3.71-3.92 3.71-3.92 0zm34.96 18.15l9.18-6.38-6.44-0.62c-6.06-0.58-6.38-0.99-5.41-6.86 1.34-8.18-4.15-22.54-11.99-31.37-8.55-9.61-22.26-16.5-22.26-11.18 0 1.08 1.35 1.97 3.01 1.97 3.57 0 19.56 15.98 23.37 23.35 3.36 6.5 5.61 22.06 3.59 24.91-0.84 1.19-3.59 3.24-6.1 4.57-4.37 2.3-4.42 2.53-0.98 5.14 4.63 3.51 3.47 3.8 14.03-3.53zm-120.1-4.19c0.22-5.95-1.96-4.65-4.11 2.46-1.05 3.45-0.73 4.42 1.25 3.76 1.46-0.48 2.75-3.28 2.86-6.22zm34.32 1.31c3.13-1.85 5.69-4.57 5.69-6.05 0-1.47-0.66-2.36-1.47-1.96-9.87 4.81-12.26 6.51-12.26 8.75 0 3.43 1.17 3.32 8.04-0.74zm-77.07-7.91c5.31-5.12 15.16-10.3 19.59-10.3 2.14 0 4.41-1.33 5.03-2.96 0.63-1.63 3.37-3.98 6.1-5.22s4.96-3.44 4.96-4.89c0-1.44 1.28-2.63 2.84-2.63 3.44 0 20.7-11.38 20.7-13.65 0-3.42-7.19-9.94-14.03-12.74-6.3-2.57-7.45-2.58-9.56-0.04-1.31 1.59-3.54 2.89-4.93 2.89-1.4 0-2.84 0.66-3.2 1.47-0.35 0.81-5.95 4.99-12.42 9.3-6.47 4.3-12.21 8.29-12.75 8.88-0.54 0.58-6.49 4.57-13.23 8.85-6.73 4.29-12.25 8.46-12.26 9.27s-1.78 1.47-3.94 1.47c-4.4 0-5.2 2.86-1.47 5.28 2.47 1.6 20.81 8.08 23.54 8.32 0.81 0.07 3.07-1.41 5.03-3.3zm175.13-0.49c3.15 0 5.73-0.82 5.73-1.82 0-1.01-3.53-7.14-7.85-13.64s-7.88-12.52-7.93-13.38c-0.14-2.57-14.16-17.29-20.82-21.85-7.44-5.1-10.92-5.23-26.21-0.98-11.89 3.3-13.95 5.9-9.86 12.36 1.14 1.82 1.07 3.78-0.2 5.31-1.11 1.34-1.36 3.51-0.55 4.82 0.98 1.58 0.49 2-1.47 1.25-1.68-0.65-2.93-0.03-2.93 1.44 0 3.48 12.43-2.35 14.06-6.59 0.86-2.25 0.15-2.09-2.87 0.64-4.52 4.09-7.65 3.01-3.44-1.19 1.48-1.49 2.35-3.74 1.93-5-0.42-1.27 1.26-3.39 3.73-4.71s5.67-3.59 7.12-5.04c3.29-3.28 7.03-3.34 12.68-0.18 14.69 8.21 27.54 27.91 27.58 42.27 0.02 6.45 0.68 8.17 2.8 7.35 1.53-0.58 5.35-1.06 8.5-1.06zm-54.16-1.88c1.75-2.83-3.21-9.65-6.18-8.51-3.24 1.24-3.34 4.93-0.24 8.03 2.84 2.85 4.86 3 6.42 0.48zm-17.47-7.47c-1.78-1.78-7.25 1.47-5.97 3.54 0.88 1.43 2.16 1.34 4.09-0.26 1.55-1.29 2.4-2.76 1.88-3.28zm88.12-0.38c2.64-8.29 1.49-17.25-2.98-23.29-5.46-7.38-6.98-7.53-14.43-1.44l-5.67 4.63 4.2 5.9c2.31 3.24 4.19 7.38 4.19 9.2 0 4.09 7.82 10.69 11.15 9.42 1.34-0.52 2.94-2.51 3.54-4.42zm-118.27 0.38c-1.3-0.43-2.36-1.96-2.36-3.38 0-1.63-1.46-2.22-3.92-1.57-2.16 0.56-3.92 2.16-3.92 3.55 0 1.57 1.49 2.14 3.92 1.51 2.28-0.6 3.92-0.06 3.92 1.28 0 1.29 1.04 1.67 2.36 0.85 1.83-1.13 1.83-1.63 0-2.24zm128.86-0.6c-1.43-0.89-2.18-1.88-1.68-2.21 0.51-0.33 2.64-1.54 4.73-2.7 6.03-3.32 5.68-5.95-1.34-10.09l-6.54-3.86-0.39 8.84c-0.39 9.01 2.36 15.01 5.88 12.83 1.19-0.73 0.93-1.83-0.66-2.81zm-105.85-1.57c1.88-3.51 1.06-6.14-1.92-6.14-0.78 0-1.83 2.21-2.35 4.91-1.1 5.75 1.45 6.49 4.27 1.23zm-49.4-1.31c8.28-7.26 15.94-12.68 17.94-12.68 1.19 0 2.17-0.88 2.17-1.96s-0.6-1.96-1.33-1.96c-1.59 0-28.1 17.8-28.1 18.87 0 1.94 6.26 0.42 9.32-2.27zm65.23 0.08c0-1.64-1.74-2.95-3.92-2.95-2.16 0-3.93-0.79-3.93-1.75s-1.37-2.28-3.04-2.92c-3.34-1.28-2.38 0.99 2.86 6.77 3.9 4.31 8.03 4.75 8.03 0.85zm17.72-9.03c8.67-5.76 11.5-8.64 9.99-10.16-2.47-2.46-8.24 0.13-16.92 7.59-3.03 2.6-6.26 4.73-7.17 4.73s-1.66 1.32-1.66 2.94c0 4.49 2.59 3.65 15.76-5.1zm-16.72 0.17c0.68-1.1 2.19-1.41 3.36-0.68 1.28 0.78 1.57 0.4 0.73-0.95-0.77-1.25-0.42-2.27 0.76-2.27 1.19 0 4.99-1.98 8.46-4.4 3.46-2.43 6.67-4.65 7.14-4.94s-0.09-1.48-1.25-2.63c-1.49-1.49-2.48-1.48-3.42 0.03-0.72 1.17-2.81 2.06-4.63 1.98-2.04-0.1-2.38-0.54-0.87-1.14 1.35-0.55 2.46-1.62 2.46-2.38 0-2.09-7.61-2.22-8.9-0.15-0.61 1 0.06 1.36 1.51 0.81 1.59-0.61 2.73 0.5 2.91 2.85 0.19 2.49-2.1 5.27-6.45 7.83-3.7 2.18-6.73 4.89-6.73 6 0 2.61 3.32 2.63 4.92 0.04zm-11.34-17.04c0.37-6.3 0.15-6.77-1.42-3.03-1.02 2.44-4.04 5.43-6.71 6.65-2.67 1.21-5.35 3.49-5.95 5.06-2.09 5.44 1.18 6.62 7.42 2.68 5-3.14 6.3-5.37 6.66-11.36zm117.36-15.87c-1.98-1.97-2.16 0.48-1.13 15.28l1.01 14.71 0.6-14.46c0.32-7.95 0.11-14.94-0.48-15.53zm-4.45 15.77c-0.91-13.61-2.33-20.95-3.77-19.5-1.53 1.52 1.44 30.78 3.12 30.78 0.77 0 1.06-5.07 0.65-11.28zm-13.3 7.36c-0.67-1.08-0.28-1.96 0.86-1.96 1.15 0 2.01-2.43 1.92-5.4l-0.16-5.39-2.59 5.88c-2.37 5.39-2.3 8.83 0.2 8.83 0.54 0 0.43-0.88-0.23-1.96zm9.34-33.67c1.67-1.03 1.09-3.75-2.1-9.87l-4.41-8.45 0.91 14.71c0.5 8.1 1.15 20.01 1.44 26.49 0.45 10.09 0.62 9.39 1.19-4.84 0.4-9.92 1.6-17.19 2.97-18.04zm-14.51 29.95c2.71-1.72 3.86-19.52 1.5-23.33-2.07-3.36-14.51-8.32-17.73-7.08-4.33 1.66-3.92 4.17 1.78 10.94 2.7 3.21 4.9 7.59 4.9 9.73 0 4.45 3.37 11.51 5.47 11.47 0.77-0.02 2.61-0.8 4.08-1.73zm-15.81-10.54c1.7-2.05 1.09-4.33-2.63-9.8-3.82-5.63-4.87-9.72-4.98-19.49-0.2-17.83-3.38-23.83-3.96-7.46-0.24 7.01-0.28 14.52-0.07 16.67 0.22 2.36-2.19 6.02-6.06 9.17l-6.43 5.25 4.12 4.57c2.26 2.5 4.68 6.17 5.37 8.13 1.21 3.41 1.53 3.39 6.85-0.4 3.06-2.18 6.57-5.17 7.79-6.64zm211.1 2c1.76-3.51 4.62-8.59 6.35-11.28 2.38-3.72 1.67-3.37-2.91 1.41-3.32 3.47-6.49 5.59-7.04 4.71-0.54-0.89 4.72-7.07 11.69-13.74 6.98-6.67 12.69-12.8 12.69-13.62s-4.86-3.87-10.79-6.78c-5.94-2.91-10.82-6.41-10.85-7.77-0.03-1.381-0.95-0.94-2.08 1-1.12 1.91-2.79 3-3.73 2.42s-2.26-0.15-2.94 0.94c-2.26 3.67-6.88 2.08-7.02-2.42-0.08-2.42-0.89-6.177-1.81-8.335-1.19-2.783-1.64-0.82-1.56 6.745 0.07 7.07 2.02 15.3 5.76 24.39 3.11 7.54 6.2 17.08 6.86 21.2 1.46 9.17 3.2 9.44 7.38 1.13zm-322.74-0.26c1.82-2.19 1.11-2.89-3.68-3.59-3.27-0.48-5.94-0.65-5.94-0.39 0 6.05 5.88 8.48 9.62 3.98zm238.73-13.61c-0.63-3.16-1.15-7.38-1.15-9.37 0-3.97-4.36-3.32-9.97 1.47-1.71 1.45-3.69 2.06-4.41 1.33-1.62-1.61-1.7 12.44-0.11 18.37l1.16 4.31 7.81-5.17c6.9-4.57 7.69-5.86 6.67-10.94zm-289.18 9.09c-1.42-0.56-3.11-0.49-3.76 0.16s0.51 1.11 2.57 1.03c2.29-0.1 2.76-0.56 1.19-1.19zm239.54-5.93c-0.93-2.42-0.43-2.9 2.04-1.96 6.39 2.45 3.02-15.25-4.74-24.92-0.95-1.18-4.05-5.05-6.9-8.6-2.85-3.553-5.66-5.977-6.25-5.388s0.99 3.266 3.51 5.948c3.81 4.06 4.57 6.93 4.5 17.16l-0.07 12.28 1.22-9.81c1.07-8.55 1.52-9.32 3.48-5.99 1.28 2.17 1.62 5.57 0.78 7.85-1.84 5.03-0.26 19.07 2 17.68 0.91-0.56 1.11-2.48 0.43-4.25zm-0.56-10.5c0-3.5 0.82-5.5 1.96-4.79 2.56 1.58 2.56 10.79 0 10.79-1.08 0-1.96-2.7-1.96-6zm-151.95-3.94c14.51-9.78 26.39-18.03 26.39-18.32s-4.12-0.69-9.15-0.88-10.19-1.21-11.46-2.26-2.82-1.41-3.43-0.79c-0.62 0.61-3.06 0.08-5.43-1.185-3.82-2.045-6.55-0.797-24.2 11.105-10.95 7.38-21.07 14.52-22.49 15.88-1.43 1.36-3.86 2.47-5.4 2.47-3 0-3.64 3.51-1.3 7.13 1.92 2.96 7.16 4.14 19.68 4.41 9.98 0.22 11.42-0.47 36.79-17.56zm47.97 15.94c0-1.02 2.65-3.42 5.89-5.33 3.23-1.91 5.88-4.03 5.88-4.7s-3.56-2.4-7.91-3.84c-7.19-2.37-8.38-2.25-13.12 1.28-7.26 5.42-7.26 7.09-0.01 10.87 7.46 3.88 9.27 4.22 9.27 1.72zm-115.75-7.03c0-1.3-1.76-4.61-3.92-7.35-6.12-7.78-4.62-8.75 2.63-1.72l6.57 6.36 10.6-6.83c5.83-3.75 12.53-8.4 14.89-10.33l4.28-3.51-6.1-2.02c-3.35-1.11-6.5-3.26-7-4.78-0.57-1.76 0.09-2.363 1.82-1.66 9.49 3.86 9.33 3.86 8.22-0.38-0.69-2.64-2.24-3.812-4.28-3.244-12.57 3.505-15.94 3.451-15.94-0.255 0-4.08 10.67-12.991 14.16-11.827 1.25 0.417 0.21 2.576-2.43 5.035-3.63 3.383-3.94 4.305-1.43 4.305 1.75 0 5.41-0.849 8.15-1.888 3.71-1.41 5.69-1.162 7.83 0.981 1.58 1.578 4.08 2.869 5.56 2.869s3.67 0.983 4.87 2.183c3.07 3.061 6.28 0.527 5.1-4.011-0.59-2.241-2.11-3.357-3.73-2.736-1.65 0.632-3.4-0.727-4.39-3.414-1.09-2.933-2.14-3.676-3.07-2.167-2.12 3.432-5.11 2.772-5.14-1.136-0.03-2.879-0.33-2.968-1.86-0.547-2.63 4.156-4.69 1.109-3.22-4.756 1.4-5.556 7.87-6.921 9.74-2.054 0.62 1.619 2.48 2.943 4.13 2.943 1.66 0 3.01 0.935 3.01 2.078 0 1.142 0.88 1.532 1.96 0.865s1.96-0.337 1.96 0.733 1.99 2.573 4.42 3.339c2.42 0.767 5.82 3.017 7.55 5.001s3.72 3.035 4.42 2.336c0.7-0.7 1.27-0.191 1.27 1.132s0.88 1.859 1.96 1.192 1.96-0.287 1.96 0.843c0 1.131 1.99 1.966 4.42 1.857 2.42-0.109 7.4 0.476 11.05 1.303 5.12 1.16 6.44 0.9 5.77-1.113-0.48-1.435-2.14-3.307-3.7-4.159-1.55-0.853-15.62-9.201-31.27-18.552-15.65-9.35-31.1-18.427-34.33-20.171-3.24-1.743-6.18-3.831-6.54-4.641-0.36-0.809-1.84-1.471-3.3-1.471-1.45 0-3.82-1.185-5.27-2.633s-4.61-3.691-7.02-4.984c-3.87-2.067-4.6-1.808-6.11 2.143-0.95 2.471-3.59 6.175-5.87 8.23-3.77 3.391-4.18 6.028-4.51 28.448-0.34 23.503-0.42 23.943-1.6 9.014l-1.24-15.695-0.36 15.859c-0.2 8.722 0.3 16.515 1.11 17.325 0.8 0.81 1.34 6.92 1.19 13.57l-0.27 12.1 1.43-10.79 1.42-10.79 0.32 13.2 0.32 13.2 4.91-2.23c2.69-1.23 4.9-3.3 4.9-4.6zm162.88-14.66l-1.41-18.641-0.3 16.021c-0.25 13.76 0.96 23.81 2.64 21.83 0.27-0.32-0.15-8.96-0.93-19.21zm65.68-1.97c-3.36-13.72-8.6-21.198-12.96-18.503-1.68 1.038-2.04 0.504-1.18-1.746 0.69-1.783 0.39-3.031-0.66-2.775-1.05 0.257-4.77-1.984-8.27-4.979-9.6-8.221-21.46-17.116-22.81-17.106-0.66 0.006-1.31 4.199-1.43 9.319s0.16 6.882 0.62 3.914c1-6.353 2.39-6.588 10.89-1.828 6.68 3.738 25.01 20.174 25.01 22.424 0 0.71 2.21 4.55 4.9 8.53 2.7 3.97 4.91 9.24 4.91 11.7s0.64 6.08 1.41 8.06c3.15 8 2.85-3.61-0.43-17.01zm7.07 6.45c-1.89-3.23-2.05-3.19-2.11 0.58-0.06 4.55 2.43 8.09 3.48 4.94 0.36-1.1-0.25-3.59-1.37-5.52zm-77.66-23.035c-0.85-15.919-2.23-26.571-3.43-26.571-1.23 0-1.55 2.904-0.81 7.497 0.65 4.124 1.78 16.497 2.5 27.499 0.73 11 1.73 19.58 2.24 19.07s0.29-12.88-0.5-27.495zm153.97 24.865c0-0.84 2.65-2.53 5.89-3.75 5.78-2.18 5.88-2.47 5.88-16.24 0-8.848-0.72-13.574-1.96-12.809-1.08 0.667-1.98 2.706-1.99 4.53-0.03 2.859-0.3 2.911-1.93 0.375-1.61-2.48-1.91-2.37-1.94 0.701-0.02 2.45-1 3.268-3.01 2.496-1.65-0.63-4.66 0.526-6.71 2.567-2.04 2.05-4.33 3.13-5.09 2.41-0.75-0.72-0.76 1.78-0.01 5.56 2.26 11.46 3.22 13.84 5.13 12.66 1-0.61 1.82-0.19 1.82 0.96 0 1.14 0.88 2.07 1.96 2.07s1.96-0.68 1.96-1.53zm-7.06-9.06c-0.72-1.87-0.34-4.37 0.85-5.56 1.57-1.57 2.51-1.23 3.46 1.24 0.72 1.88 0.34 4.38-0.85 5.56-1.57 1.57-2.51 1.23-3.46-1.24zm7.37-5.1c0-2.7 0.44-3.8 0.99-2.45 0.54 1.35 0.54 3.55 0 4.9-0.55 1.35-0.99 0.25-0.99-2.45zm5.89-1.96c0-2.7 0.44-3.8 0.98-2.45 0.55 1.34 0.55 3.55 0 4.9-0.54 1.35-0.98 0.25-0.98-2.45zm-190.74 5.39c-0.09-7.49-0.58-9.23-1.79-6.37-0.91 2.15-4.34 5.66-7.61 7.78l-5.94 3.86 6.26 2.28c3.44 1.26 6.92 2.39 7.73 2.52s1.42-4.4 1.35-10.07zm18.68 6.24c-1.68-2.72-2.86-2.21-2.86 1.24 0 1.68 0.9 2.5 1.99 1.82 1.1-0.68 1.49-2.05 0.87-3.06zm110.37-1.02c13.55-4.51 48.01-21.29 66.54-32.412 14.44-8.666 15.93-10.125 15.67-15.334-0.42-8.356-1.92-8.834-10.56-3.376-11.32 7.143-15.05 7.327-15.8 0.781-0.34-2.967-1.59-5.395-2.78-5.395s-1.6-0.562-0.91-1.25c0.69-0.687-0.49-3.693-2.61-6.679-2.13-2.986-3.87-6.118-3.87-6.961s-3.64-5.85-8.09-11.127l-8.09-9.593 5.42-4.266c14.03-11.042 13.91-10.906 10.76-13.091-3.61-2.4992-21.99-0.4384-23.96 2.686-0.77 1.218-1.65 1.952-1.96 1.63-1.11-1.156-21.16 8.012-21.16 9.675 0 0.935-1.32 1.701-2.93 1.701-3.56 0-9.67 5.13-24.51 20.599-23.97 24.98-27.45 30.409-19.51 30.409 2.24 0 5.37 1.305 6.96 2.899 1.6 1.595 4.4 4.036 6.24 5.426 1.83 1.389 4.31 4.278 5.51 6.419 2.72 4.871 8.62 6.292 8.62 2.076 0-2.108 1.83-3.086 5.77-3.086 3.17 0 6.26-0.8 6.86-1.778 0.61-0.978 2.87-1.316 5.03-0.752 6.38 1.67 5.47 15.459-1.38 20.849-2.91 2.29-7.33 3.9-9.81 3.57-3.69-0.48-4.51 0.33-4.51 4.46 0 6.13 4.91 6.62 19.06 1.92zm-104.11-9.14c-0.68-5.67-1.26-15.598-1.29-22.072-0.02-6.475-0.69-10.759-1.49-9.522-2.27 3.553-0.53 41.894 1.91 41.894 1.39 0 1.68-3.51 0.87-10.3zm36.2-13.244c-1.81-10.243-1.87-9.945-1.19 5.884 0.8 18.95 1.34 21.6 2.37 11.77 0.4-3.77-0.13-11.72-1.18-17.654zm-42.31 4.414c-0.68-8.362-1.7-17.05-2.26-19.305-0.73-2.92 0.43-5.052 4.02-7.402 6.41-4.203 6.38-6.076-0.12-6.453-2.84-0.164-6.02-1.489-7.05-2.943-1.46-2.032-1.65-1.883-0.85 0.646 0.58 1.81-0.11 4.257-1.54 5.439-1.42 1.182-3.07 4.558-3.67 7.501-0.59 2.943-1.7 7.117-2.46 9.275-1.38 3.923-1.38 3.923 1.76 0 2.98-3.709 3.17-3.224 3.57 8.828l0.42 12.754 1.13-15.697 1.14-15.695 1.68 19.129c0.93 10.523 2.53 19.123 3.57 19.123 1.15 0 1.41-5.92 0.66-15.2zm-166.83 9.32c-1.55-2.51-2.94-2.51-2.94 0 0 1.08 0.93 1.96 2.08 1.96 1.14 0 1.53-0.88 0.86-1.96zm193.45-10.346c-0.77-14.562-2.17-14.217-2.17 0.536 0 6.83 0.61 11.82 1.36 11.07 0.74-0.74 1.11-5.97 0.81-11.606zm-46.8-1.356c5.34-2.665 7.23-5.956 3.44-5.956-1.08 0-1.97 0.922-1.97 2.048 0 1.127-1.1 1.905-2.45 1.73-5.32-0.692-7.36 0.293-7.39 3.579-0.02 2.931-0.3 3.001-1.93 0.491-1.09-1.688-1.91-1.966-1.93-0.651-0.02 1.261-0.61 3.911-1.32 5.881-1.18 3.26-0.86 3.22 3.43-0.41 2.6-2.21 7.15-5.23 10.12-6.712zm41.47-6.446c-1.29-16.088-1.86-18.686-3.67-16.873-1.64 1.641 1.45 33.061 3.25 33.061 0.94 0 1.13-7.26 0.42-16.188zm-124.5 9.148c-3.44-4.151-6.13-3.339-3.41 1.02 1.31 2.09 3.12 3.34 4.04 2.77 0.92-0.56 0.63-2.27-0.63-3.79zm310.98-8.167c-1.72-7.879-5.17-16.45-6.21-15.414-0.49 0.493 0.19 4.273 1.52 8.4 1.33 4.128 2.71 8.608 3.06 9.957 1.3 4.944 2.77 2.282 1.63-2.943zm-11.76-8.798c-2.48-3.328-3.01-3.536-2.09-0.829 0.68 1.988 1.87 5.961 2.65 8.828 1.32 4.903 1.45 4.952 2.08 0.829 0.37-2.411-0.82-6.384-2.64-8.828zm-238.42 7.752c-0.45-0.305-2.59-1.85-4.74-3.433-3.63-2.662-3.73-2.621-1.24 0.555 1.49 1.888 3.62 3.433 4.75 3.433 1.12 0 1.68-0.249 1.23-0.555zm16.57-4.36c0.84-2.189-3.93-5.495-18.43-12.77-10.76-5.399-19.56-8.885-19.56-7.746s2.72 3.575 6.04 5.413c4.57 2.53 28.79 16.705 30.54 17.869 0.15 0.103 0.79-1.142 1.41-2.766zm212.35-2.401c-0.65-0.652-1.11 0.507-1.03 2.575 0.1 2.286 0.56 2.751 1.19 1.185 0.57-1.416 0.5-3.108-0.16-3.76zm-353.29-0.152c-0.6-0.604-2.18-0.001-3.51 1.339-1.93 1.938-1.7 2.163 1.09 1.099 1.94-0.737 3.03-1.834 2.42-2.438zm149.36-4.831c-0.54-1.328-0.94 0.234-0.9 3.471s0.48 4.324 0.97 2.415c0.5-1.909 0.47-4.557-0.07-5.886zm239.41-0.943c-0.49-1.889-0.89-0.344-0.89 3.433s0.4 5.322 0.89 3.433c0.5-1.888 0.5-4.978 0-6.866zm-240.73-5.241c0.02-2.073 1.5-5.389 3.29-7.369 3.85-4.254 4.58-3.553-10.06-9.639l-11.71-4.868-10.56 5.719-10.56 5.719 18.35 9.279c18.57 9.393 21.19 9.535 21.25 1.159zm32.78-2.607c-0.5-1.888-0.9-0.343-0.9 3.433 0 3.777 0.4 5.322 0.9 3.434 0.49-1.889 0.49-4.979 0-6.867zm42.29-1.471c1.8-3.679 1.65-3.66-2.46 0.292-2.77 2.664-3.81 5.157-2.81 6.77 1.26 2.042 1.76 1.983 2.47-0.292 0.48-1.566 1.75-4.612 2.8-6.77zm-69.21 0c0-1.079-0.86-0.638-1.9 0.981-1.05 1.618-1.9 3.825-1.9 4.904s0.85 0.638 1.9-0.981c1.04-1.618 1.9-3.825 1.9-4.904zm212.21 2.452c0.14-1.349 0.36-5.101 0.49-8.338 0.17-4.453 1.06-5.745 3.66-5.309 2.08 0.35 3.43-0.662 3.43-2.568 0-1.73 0.88-2.599 1.96-1.932s1.96 0.277 1.96-0.865c0-1.143 1.33-2.078 2.95-2.078 4.16 0 3.64-5.18-0.99-9.809-4.88-4.887-6.07-4.887-11.31 0-5.52 5.141-6.3 4.965-6.54-1.472l-0.19-5.395-1.43 4.905c-0.78 2.697-0.7 7.547 0.2 10.777 0.89 3.23 1.62 10.072 1.62 15.205 0 5.132 0.88 9.331 1.96 9.331s2.08-1.103 2.23-2.452zm23.24-4.039c0.02-0.873-1-0.949-2.26-0.169-1.6 0.99-1.86 0.284-0.87-2.337 1.09-2.839 0.88-3.205-0.84-1.5-1.32 1.313-1.69 4.085-0.88 6.635 1.08 3.418 1.77 3.785 3.11 1.669 0.94-1.491 1.73-3.425 1.74-4.298zm-385.17-3.846c-0.54-1.328-0.94 0.234-0.9 3.471s0.48 4.324 0.97 2.415c0.5-1.909 0.47-4.557-0.07-5.886zm213.69 3.508c2.88-2.678 5.84-4.502 6.57-4.054 1.89 1.172 4.19-0.701 13.79-11.241 4.69-5.154 7.12-8.828 5.39-8.164-1.73 0.665-6.38 5.151-10.33 9.97s-7.65 8.294-8.22 7.721c-0.57-0.572 0.07-2.386 1.44-4.031 1.7-2.045 1.78-2.99 0.28-2.99-1.21 0-2.2 0.883-2.2 1.962s-1.16 1.961-2.57 1.961c-1.4 0-5.35 2.06-8.76 4.577-4.73 3.488-5.66 5.121-3.91 6.866 2.93 2.93 2.4 3.09 8.52-2.577zm131.52-5.188l8.08-5.464-2.64-10.149c-2.59-10.004-16.57-31.226-20.57-31.226-2.63 0-1.43-12.24 1.29-13.13 1.14-0.3743 3.51 2.2062 5.27 5.7344 2.69 5.4146 3.21 5.7446 3.32 2.1164 0.06-2.3642-0.76-4.8441-1.84-5.511-2.69-1.6623-2.48-6.8666 0.27-6.8666 1.23 0 3.41 1.545 4.85 3.4333 2.4 3.1666 2.61 3.1756 2.66 0.1158 0.04-1.8246-0.82-3.8631-1.9-4.53-1.07-0.6669-1.96-2.9261-1.96-5.0205 0-2.0948-1.1-3.8218-2.45-3.8388-1.35-0.018-5.44-2.666-9.09-5.886-3.66-3.22-7.44-5.854-8.41-5.854s1.58 2.867 5.66 6.372c11.39 9.7775 12.72 12.469 7.18 14.595-1.94 0.7415-4.46-0.2853-6.38-2.5986-1.75-2.1034-4.95-5.0764-7.11-6.6074-2.35-1.667-1.76-0.411 1.47 3.1349 5.21 5.713 6.75 10.57 4.16 13.157-0.68 0.6832-2.96-0.941-5.06-3.6088s-5.73-5.7777-8.08-6.9108c-4.25-2.0555-4.25-2.052-0.29 1.4838 2.18 1.9492 6.07 6.5172 8.63 10.151l4.67 6.6069-7.03 6.636c-3.87 3.649-8.42 6.636-10.11 6.636-4.32 0-3.83 1.783 1.71 6.142 2.64 2.07 6.03 6.17 7.56 9.11 1.52 2.941 4.17 7.996 5.88 11.233 1.72 3.237 4.16 8.744 5.43 12.237 1.38 3.809 3.2 5.835 4.53 5.061 1.23-0.709 5.86-3.749 10.3-6.754zm30.03-2.51c-0.09-1.24-0.57-1.112-1.14 0.304-0.55 1.349-2.24 2.452-3.77 2.452s-2.78 1.461-2.78 3.247c0 2.92 0.39 2.889 3.92-0.304 2.16-1.953 3.86-4.518 3.77-5.699zm-281.69 2.757c-2.04-1.878-44.09-23.551-45.64-23.522-1.86 0.035 34.82 21.184 39.08 22.537 2.16 0.687 3.93 2.124 3.93 3.194s0.96 1.352 2.14 0.627c1.17-0.725 1.39-2.001 0.49-2.836zm96.17-12.004c4.48-2.041 9.11-9.1 9.11-13.899 0-1.196 2.2-5.068 4.9-8.605s4.91-7.261 4.91-8.276c0-4.009 10.4-20.241 11.66-18.2 0.78 1.2505 3.18-1.1384 5.75-5.7093 2.43-4.3224 3.94-7.8587 3.36-7.8587s-2.58 2.8691-4.44 6.3759c-2.57 4.835-3.56 5.5552-4.11 2.9794-0.4-1.8682 0.66-5.3754 2.35-7.7933 3.77-5.374 3.9-7.448 0.48-7.448-4.58 0-19.54 11.214-33.69 25.259-19.5 19.341-20.6 20.699-20.6 25.308 0 2.274-0.89 4.68-1.96 5.347-1.08 0.667-1.97 3.191-1.97 5.609s-0.99 5.386-2.2 6.596c-1.62 1.624-0.08 1.916 5.89 1.115 5.5-0.737 8.09-0.347 8.09 1.218 0 1.267 1.1 3.496 2.45 4.953 2.04 2.203 2.69 2.021 3.86-1.08 0.78-2.051 3.55-4.702 6.16-5.891zm-137.05 2.194c-0.67-1.079-2.27-1.949-3.55-1.932-1.41 0.018-1.17 0.789 0.6 1.932 3.77 2.436 4.45 2.436 2.95 0zm-9.24-5.997c-1.99-1.161-2.91-3.327-2.27-5.336 0.9-2.797 0.73-2.885-0.95-0.504-2.24 3.164 0.42 7.96 4.36 7.853 1.21-0.032 0.7-0.939-1.14-2.013zm187.36-2.341c3.46-2.428 10.39-7.725 15.39-11.771 5.01-4.047 10.53-7.357 12.26-7.357 1.74 0 3.17-0.748 3.17-1.661 0-0.914 3.24-5.005 7.21-9.091 6.52-6.7083 6.9-7.6625 3.93-9.8358-1.82-1.3238-3.3-3.5602-3.3-4.9699 0-3.8929-2-1.0717-5.17 7.2639l-2.84 7.5028 1.04-8.0375c0.57-4.4208 3.26-13.054 5.97-19.184s4.93-12.278 4.93-13.661 2.29-8.2 5.09-15.149c2.8-6.948 5.83-15.282 6.72-18.519 0.9-3.237 4.82-14.714 8.72-25.505 3.9-10.79 8.8-24.742 10.89-31.012 4.76-14.27 5.91-16.22 7.79-13.18 0.83 1.35 1.46-0.02 1.48-3.22 0.03-3.06 1.86-11.72 4.07-19.26 2.22-7.53 3.7-14.03 3.29-14.43-1.88-1.88-12.87 8.37-14 13.06-1.49 6.16-8.87 20.66-11 21.61-0.81 0.36-1.47 1.91-1.47 3.43 0 1.53-2.14 6.98-4.75 12.1-10.66 20.918-26.64 55.367-26.64 57.426 0 1.211-2.6 7.215-5.78 13.343-3.17 6.128-8.16 16.439-11.08 22.914-2.92 6.474-7.72 16.626-10.66 22.561-2.94 5.9348-5.87 13.055-6.52 15.824-0.64 2.768-2.96 7.097-5.15 9.619-2.18 2.522-3.97 6.106-3.97 7.964 0 4.716 2.28 15.64 3.26 15.64 0.45 0 3.65-1.986 7.12-4.414zm128.28-15.775c0.8-1.294 0-1.571-2.15-0.744-1.89 0.723-4.24 1.314-5.23 1.314s-1.8 0.8-1.8 1.778c0 2.284 7.51 0.364 9.18-2.348zm-142.59-13.163c1.16-2.158 1.66-3.924 1.12-3.924s-1.92 1.766-3.08 3.924c-1.15 2.158-1.66 3.924-1.12 3.924s1.93-1.766 3.08-3.924zm94.17-11.771c0-1.0791-0.93-1.9619-2.07-1.9619-1.15 0-1.54 0.8828-0.87 1.9619 1.55 2.5139 2.94 2.5139 2.94 0zm-27.19-9.9636c1.49-4.9613 1.69-8.5023 0.54-9.3193-2.15-1.522-2.3-18.617-0.22-25.84 2.54-8.833-3.8 6.053-7.1 16.676-5.21 16.758-5.96 22.878-3.02 24.738 5.07 3.2114 7.42 1.7114 9.8-6.2547zm17.85-16.345c8.68-9.5 9.97-13.751 1.56-5.149-6.4 6.552-7.91 7.207-7.91 3.439 0-1.384-2.21-2.698-4.91-2.921-3.72-0.308-4.9 0.533-4.9 3.496 0 2.146 0.98 3.901 2.19 3.901 2.13 0 1.75 4.518-1.07 12.752-0.93 2.7043 0.06 2.1492 3.18-1.7847 2.49-3.1403 7.83-9.3193 11.86-13.733zm-66.46-0.176l3.45-5.886-4.04 4.631c-2.23 2.548-4.04 5.564-4.04 6.704 0 2.412 0.09 2.297 4.63-5.449zm79.73 4.904c-1.62-1.046-3.83-1.902-4.91-1.902s-0.64 0.856 0.98 1.902 3.83 1.902 4.91 1.902 0.64-0.856-0.98-1.902zm-72.97-16.728c-0.61-0.604-1.7 0.485-2.44 2.42-1.06 2.796-0.84 3.021 1.1 1.098 1.34-1.331 1.94-2.914 1.34-3.518zm72.21-11.78c1.59-2.436 3.38-7.833 3.97-11.993 0.58-4.161 3.28-14.463 5.99-22.894 2.72-8.431 4.62-15.628 4.24-15.995-0.38-0.366-3.22-0.972-6.31-1.346-5.32-0.645-5.86-0.003-10 12.07-8.32 24.249-16.86 52-16.81 54.607 0.07 3.169 14.69-8.004 18.92-14.449zm-67.91 3.004c1.16-2.158 1.66-3.924 1.12-3.924s-1.93 1.766-3.08 3.924c-1.16 2.158-1.66 3.924-1.12 3.924s1.93-1.766 3.08-3.924zm48.91-30.17c-0.17-2.609-6.57 11.375-8.44 18.407-0.71 2.693 0.93 0.148 3.64-5.655 2.72-5.804 4.88-11.542 4.8-12.752zm-39.1 10.551c1.16-2.158 1.66-3.924 1.12-3.924s-1.93 1.766-3.08 3.924c-1.16 2.158-1.66 3.924-1.12 3.924s1.93-1.766 3.08-3.924zm15.89-30.409c1.35-2.606 0.68-2.277-1.98 0.981-2.21 2.697-4.02 5.787-4.03 6.866-0.01 2.1 2.71-1.448 6.01-7.847zm29.17 1.962c0-1.079-0.85-0.638-1.9 0.981-1.04 1.618-1.9 3.825-1.9 4.904s0.86 0.638 1.9-0.981c1.05-1.618 1.9-3.825 1.9-4.904zm5.81-13.737c0-1.08-1.26 0.25-2.8 2.95-1.55 2.694-2.81 5.784-2.81 6.863s1.26-0.245 2.81-2.943c1.54-2.7 2.8-5.79 2.8-6.87zm23.33-1.47c9.48-31.49 19.97-69.29 19.97-71.93 0-1.53-1.94-1.01-5.39 1.47-4.01 2.86-6.88 8.34-11.13 21.22-3.15 9.55-7.78 23.37-10.3 30.72-5.88 17.18-5.91 22.4-0.16 23.51 2.43 0.47 4.57 0.97 4.76 1.12 0.18 0.15 1.2-2.6 2.25-6.11zm-42.06-20.21c0.67-1.74 0.34-2.53-0.77-1.85-1.07 0.66-1.94 2.03-1.94 3.05 0 2.82 1.4 2.2 2.71-1.2zm5.88-7.85c0.67-1.74 0.35-2.53-0.77-1.84-1.06 0.66-1.94 2.03-1.94 3.04 0 2.82 1.41 2.2 2.71-1.2zm23.98-2.31c-0.65-0.65-1.11 0.51-1.03 2.58 0.1 2.28 0.56 2.75 1.19 1.18 0.57-1.41 0.5-3.1-0.16-3.76zm-5.26-35.84c2.2-4.63 2.16-4.69-0.72-1.1-1.68 2.1-3.05 4.67-3.05 5.72 0 2.5 0.91 1.38 3.77-4.62z"/><metadata><rdf:RDF><cc:Work><dc:format>image/svg+xml</dc:format><dc:type rdf:resource="http://purl.org/dc/dcmitype/StillImage"/><cc:license rdf:resource="http://creativecommons.org/licenses/publicdomain/"/><dc:publisher><cc:Agent rdf:about="http://openclipart.org/"><dc:title>Openclipart</dc:title></cc:Agent></dc:publisher><dc:title>Space Shuttle 2</dc:title><dc:date>2007-04-29T20:56:22</dc:date><dc:description>a lineart drawing of a space shuttle that was converted from a drawing from the NASA image exchange(NIX). &#xD;\n&#xD;\nthe source url is -&#xD;\nhttp://images.jsc.nasa.gov/luceneweb/fullimage.jsp?searchpage=true&amp;keywords=drawing&amp;textsearch=Go&amp;hitsperpage=30&amp;pageno=3&amp;photoId=S89-44165</dc:description><dc:source>http://openclipart.org/detail/4204/space-shuttle-2-by-ryanlerch</dc:source><dc:creator><cc:Agent><dc:title>ryanlerch</dc:title></cc:Agent></dc:creator><dc:subject><rdf:Bag><rdf:li>clip art</rdf:li><rdf:li>clipart</rdf:li><rdf:li>flight</rdf:li><rdf:li>nasa</rdf:li><rdf:li>shuttle</rdf:li><rdf:li>space</rdf:li><rdf:li>space ship</rdf:li><rdf:li>space shuttle</rdf:li><rdf:li>space travel</rdf:li></rdf:Bag></dc:subject></cc:Work><cc:License rdf:about="http://creativecommons.org/licenses/publicdomain/"><cc:permits rdf:resource="http://creativecommons.org/ns#Reproduction"/><cc:permits rdf:resource="http://creativecommons.org/ns#Distribution"/><cc:permits rdf:resource="http://creativecommons.org/ns#DerivativeWorks"/></cc:License></rdf:RDF></metadata></svg>
